<?xml version="1.0" standalone="no"?>
<!DOCTYPE svg PUBLIC "-//W3C//DTD SVG 20010904//EN"
 "http://www.w3.org/TR/2001/REC-SVG-20010904/DTD/svg10.dtd">
<svg version="1.0" xmlns="http://www.w3.org/2000/svg"
 width="1280.000000pt" height="928.000000pt" viewBox="0 0 1280.000000 928.000000"
 preserveAspectRatio="xMidYMid meet">
<g transform="translate(0.000000,928.000000) scale(0.100000,-0.100000)"
fill="#000000" stroke="none">
<path d="M7170 9253 c0 -72 92 -141 169 -128 45 7 52 18 60 98 l7 57 -118 0
-118 0 0 -27z"/>
<path d="M10430 9241 c0 -22 4 -51 10 -65 8 -22 16 -26 50 -26 67 0 80 12 80
75 l0 55 -70 0 -70 0 0 -39z"/>
<path d="M4505 9210 c-15 -17 -16 -24 -5 -50 15 -37 32 -38 50 -5 10 19 11 30
2 50 -14 30 -23 31 -47 5z"/>
<path d="M5550 9218 c0 -7 11 -44 25 -83 13 -38 25 -80 25 -92 0 -21 -4 -23
-61 -23 -57 0 -60 -1 -57 -22 2 -18 11 -24 36 -26 27 -3 32 -7 32 -31 0 -31
-16 -51 -41 -51 -9 0 -24 -12 -34 -26 -14 -22 -21 -25 -52 -19 -19 3 -48 3
-64 0 -26 -6 -29 -11 -29 -45 0 -33 7 -46 54 -93 29 -29 62 -70 72 -90 11 -19
44 -65 74 -102 47 -57 62 -68 108 -81 36 -11 82 -15 139 -12 l85 3 39 45 c73
83 83 117 89 282 4 120 9 150 23 165 12 14 17 37 17 85 0 65 0 66 -48 114 -87
88 -113 106 -142 98 -14 -4 -54 -8 -90 -9 -36 -2 -84 -6 -106 -10 -35 -6 -45
-4 -63 14 -24 24 -31 26 -31 9z"/>
<path d="M7107 9023 c-34 -9 -48 -80 -21 -107 19 -19 104 -22 122 -4 17 17 15
69 -4 96 -15 22 -50 27 -97 15z"/>
<path d="M11040 9005 c0 -26 14 -31 39 -16 19 12 6 41 -19 41 -15 0 -20 -7
-20 -25z"/>
<path d="M3552 8955 c-60 -13 -97 -32 -182 -90 -67 -46 -81 -60 -95 -100 -27
-77 -13 -372 20 -420 8 -11 31 -45 52 -75 21 -30 64 -75 96 -101 119 -95 296
-104 477 -24 41 19 83 36 93 39 9 3 17 12 17 21 0 19 27 19 76 -1 38 -15 168
-142 179 -174 3 -9 19 -24 35 -34 17 -9 40 -31 53 -48 12 -16 39 -39 60 -49
64 -33 77 -51 66 -96 -5 -21 -9 -72 -9 -113 0 -85 -8 -100 -56 -100 -18 0 -36
-4 -39 -10 -10 -16 17 -91 38 -102 16 -8 24 -5 43 18 20 25 25 27 34 14 5 -8
10 -32 10 -52 0 -28 5 -38 20 -43 13 -4 20 -15 20 -30 0 -35 -18 -40 -45 -15
-16 15 -41 24 -72 27 -45 4 -49 3 -66 -27 -9 -18 -26 -34 -37 -37 -11 -3 -20
-7 -20 -10 0 -13 46 -92 66 -112 28 -28 23 -41 -14 -41 -36 0 -46 -8 -70 -56
-12 -23 -28 -44 -37 -48 -13 -4 -15 -13 -10 -36 7 -32 1 -36 -37 -21 -13 5
-31 12 -42 15 -15 5 -16 9 -6 21 16 19 16 19 -45 35 -27 8 -68 25 -90 39 -22
14 -52 31 -67 38 -16 7 -33 25 -40 40 -7 15 -23 45 -35 66 l-23 37 -83 0 c-62
0 -91 -5 -118 -19 -31 -17 -50 -19 -132 -14 -71 4 -101 3 -112 -7 -13 -11 -20
-9 -42 11 -49 44 -72 74 -94 117 -13 27 -32 47 -48 53 -73 27 -76 30 -115 174
l-22 80 -54 -1 c-34 0 -75 -9 -107 -23 -65 -29 -78 -59 -68 -164 8 -88 -9
-200 -35 -238 -22 -30 -25 -55 -10 -95 9 -22 7 -31 -9 -48 -11 -12 -24 -33
-30 -48 -8 -21 -17 -28 -36 -28 -21 0 -25 4 -20 19 3 10 -1 24 -10 31 -9 8
-15 29 -15 57 0 57 -14 83 -45 83 -47 0 -59 -66 -26 -143 17 -40 24 -46 53
-49 33 -3 33 -3 30 -50 -4 -55 -6 -55 95 -35 l66 12 30 68 c36 81 53 83 77 10
9 -29 22 -59 29 -67 9 -11 8 -17 -4 -30 -9 -9 -21 -13 -27 -10 -11 7 -28 -13
-28 -32 0 -7 11 -15 25 -18 17 -4 26 -15 30 -34 26 -131 52 -177 128 -223 61
-36 67 -44 111 -148 29 -66 32 -84 28 -139 -2 -35 -7 -61 -11 -60 -72 37 -94
68 -110 153 -14 73 -22 83 -56 61 -25 -16 -26 -16 -43 13 -23 40 -54 53 -136
56 -44 2 -72 8 -77 17 -14 22 -11 88 5 94 18 7 36 56 36 95 0 36 -19 38 -77 7
-34 -18 -43 -28 -43 -50 0 -15 -15 -44 -36 -70 -43 -51 -52 -58 -82 -58 -12 0
-31 -5 -41 -12 -15 -9 -25 -9 -46 0 -24 11 -30 9 -68 -23 -22 -19 -43 -35 -47
-35 -3 0 -14 -13 -23 -30 -10 -16 -26 -30 -36 -30 -21 0 -41 -19 -41 -39 0
-28 -54 -124 -72 -129 -13 -3 -17 -10 -13 -21 24 -57 26 -71 15 -110 -6 -22
-15 -43 -20 -46 -19 -12 -9 -24 35 -44 37 -16 45 -25 45 -46 0 -33 28 -76 49
-74 36 3 41 -2 41 -37 0 -32 2 -36 21 -31 12 3 58 -1 103 -10 116 -22 114 -22
93 -38 -10 -7 -27 -30 -37 -50 -15 -30 -16 -37 -5 -42 8 -3 26 4 41 16 14 11
30 18 35 15 5 -3 9 -32 9 -66 0 -50 -4 -65 -25 -90 -14 -16 -25 -42 -25 -58 0
-18 -13 -44 -35 -70 -19 -23 -35 -48 -35 -54 0 -23 31 -76 44 -76 19 0 46 33
46 56 0 11 6 29 14 40 12 16 15 16 19 4 13 -39 16 -68 8 -95 -7 -28 -11 -30
-69 -36 -66 -6 -97 -25 -113 -67 -10 -27 -33 -25 -37 4 -1 11 -38 58 -81 104
l-79 85 -24 -22 c-13 -13 -32 -23 -42 -23 -15 0 -17 6 -12 33 3 17 9 49 12 70
l7 37 -61 0 c-33 0 -64 -4 -67 -10 -3 -5 -31 -10 -60 -10 -54 0 -55 -1 -75
-41 -21 -39 -21 -41 -3 -68 22 -33 139 -141 153 -141 5 0 33 9 62 20 67 25 76
25 99 -4 12 -15 26 -22 37 -19 10 2 27 -6 41 -21 17 -18 35 -26 58 -26 36 0
44 -18 18 -40 -11 -9 -33 -11 -75 -6 -59 7 -59 7 -75 -24 -22 -42 -41 -33 -37
17 2 28 -2 44 -16 56 -18 16 -20 16 -42 -8 -13 -14 -31 -25 -41 -25 -9 0 -32
-6 -50 -14 -47 -20 -69 -6 -69 43 0 31 -5 40 -25 49 -19 9 -25 19 -25 42 0 26
-3 30 -28 30 -16 0 -37 -9 -47 -20 -24 -27 -35 -25 -35 5 0 43 -27 81 -81 115
-28 17 -53 40 -56 51 -3 10 -9 19 -14 19 -5 0 -9 7 -9 16 0 9 -9 27 -20 41
-15 20 -20 41 -20 89 0 34 4 74 9 88 8 21 3 34 -31 86 -39 58 -41 64 -32 100
12 41 0 70 -29 70 -18 0 -34 25 -49 74 -26 88 -62 231 -77 314 -13 71 -24 99
-43 120 -34 35 -50 138 -24 148 34 13 9 98 -36 122 -23 13 -88 103 -88 122 0
14 12 13 65 -10 56 -24 65 -25 65 -4 0 9 9 27 20 41 11 14 20 38 20 53 0 28
-27 60 -49 60 -17 0 -48 -37 -67 -77 -8 -18 -19 -33 -26 -33 -16 0 -251 90
-265 102 -7 5 -26 35 -44 66 -18 31 -46 75 -64 97 -18 22 -40 55 -50 74 -19
38 -99 127 -127 142 -18 10 -18 8 -3 -28 9 -21 29 -52 45 -68 35 -36 154 -257
165 -304 6 -28 3 -37 -21 -62 -42 -44 -35 -83 36 -222 39 -75 59 -124 55 -136
-3 -11 -24 -26 -45 -35 -52 -21 -52 -45 -1 -87 22 -17 47 -48 55 -69 11 -28
22 -39 43 -43 30 -6 60 -47 49 -66 -4 -6 -20 -11 -36 -11 -56 0 -46 -43 14
-58 40 -11 44 -34 12 -81 -33 -47 -33 -69 1 -114 38 -49 86 -67 184 -67 l80 0
-3 -72 -3 -73 -35 3 c-19 1 -48 12 -63 23 l-29 21 4 -23 c4 -30 71 -69 118
-69 114 -1 157 -124 73 -207 -38 -39 -38 -60 4 -105 l25 -26 -21 -21 c-25 -25
-46 -26 -92 -7 -24 10 -39 11 -52 4 -10 -5 -25 -7 -32 -4 -8 3 -25 -4 -38 -14
-13 -11 -42 -22 -63 -26 -34 -5 -45 -1 -86 31 -26 19 -51 47 -54 61 -5 20 -61
63 -68 52 -1 -2 0 -40 3 -86 5 -64 10 -87 23 -96 24 -18 23 -46 -1 -46 -11 0
-23 5 -26 10 -4 6 -11 8 -16 4 -14 -8 17 -41 46 -48 13 -3 30 -20 39 -37 l15
-30 -36 -15 c-52 -22 -30 -38 31 -23 26 6 74 9 106 6 l59 -5 16 49 c18 53 46
70 84 50 28 -15 37 -36 45 -98 7 -59 -6 -70 -39 -33 -13 15 -31 20 -65 20 -49
0 -66 -14 -54 -45 7 -17 75 -60 89 -55 31 10 93 7 113 -7 19 -12 29 -12 52 -3
15 6 39 10 52 8 20 -3 23 -9 23 -48 1 -54 7 -65 45 -85 16 -8 51 -37 79 -63
47 -45 51 -53 51 -95 0 -25 5 -49 10 -52 5 -3 10 -15 10 -27 0 -19 4 -20 59
-14 40 5 62 3 66 -4 4 -7 28 -10 59 -9 57 4 78 -4 69 -26 -15 -41 22 -95 67
-95 30 0 54 -27 66 -74 5 -22 10 -25 28 -20 11 3 23 6 26 6 29 1 40 -5 45 -24
3 -13 11 -34 18 -46 10 -21 8 -26 -13 -42 l-25 -19 28 -10 c15 -6 27 -14 27
-19 0 -5 11 -14 24 -20 13 -6 27 -20 31 -32 3 -11 22 -27 42 -35 72 -30 116
-12 129 52 5 28 3 33 -25 47 -32 17 -40 43 -20 63 8 8 3 16 -20 27 -33 18 -41
36 -16 36 9 0 32 -8 53 -19 20 -10 57 -21 82 -24 33 -4 51 -13 70 -36 25 -30
26 -31 65 -17 29 10 49 27 73 63 35 51 79 93 99 93 6 0 14 -13 18 -29 3 -16
15 -37 26 -47 10 -9 19 -24 19 -32 0 -8 11 -27 25 -44 28 -33 31 -48 14 -65
-18 -18 -62 9 -88 53 l-21 36 -38 -31 c-20 -18 -43 -36 -50 -42 -7 -6 -21 -7
-31 -4 -14 4 -21 0 -26 -15 -3 -11 -20 -27 -36 -35 -16 -9 -29 -19 -29 -24 0
-15 -45 -21 -81 -11 -31 10 -36 8 -59 -18 -14 -16 -35 -34 -47 -41 -17 -9 -23
-21 -23 -46 0 -78 22 -93 155 -110 88 -11 96 -14 107 -45 7 -21 19 -32 44 -39
39 -11 80 -54 88 -92 5 -28 27 -42 51 -33 22 9 28 42 14 76 -14 34 -3 48 38
48 12 0 31 12 43 27 l21 27 -37 31 c-22 19 -34 36 -30 43 11 18 62 14 99 -6
38 -21 97 -76 97 -90 0 -6 -29 -32 -64 -57 l-64 -47 25 -36 c16 -24 22 -44 18
-57 -15 -46 -11 -60 18 -63 29 -4 63 -44 52 -62 -15 -24 -211 -1 -222 27 -8
21 17 43 47 43 15 0 33 6 39 14 9 11 2 15 -40 24 -49 9 -54 8 -77 -15 -24 -24
-28 -25 -117 -18 -88 6 -92 6 -98 -14 -5 -20 -12 -21 -112 -21 -116 0 -134 -8
-135 -56 0 -12 -7 -28 -16 -35 -14 -11 -24 -9 -66 13 -55 29 -65 29 -91 -7
-26 -36 -14 -71 26 -79 94 -18 132 -34 163 -69 17 -21 36 -37 42 -37 7 0 12
28 14 73 l3 72 48 -1 c40 0 52 -5 77 -32 20 -22 41 -34 72 -38 32 -5 54 -18
87 -51 l44 -43 -5 -64 -6 -64 42 -8 41 -9 6 -59 c6 -49 12 -63 33 -79 14 -10
26 -28 26 -39 0 -36 82 -121 135 -140 46 -17 49 -17 92 2 25 11 51 20 59 20 7
0 22 12 33 26 15 20 27 25 43 21 18 -5 32 3 65 40 36 39 45 44 58 33 8 -7 14
-18 14 -24 -13 -80 104 -126 178 -70 18 14 39 24 46 21 15 -5 47 46 47 73 0
15 -9 22 -31 27 -55 11 -93 104 -49 118 34 11 25 37 -12 33 l-33 -3 2 58 c1
31 0 57 -2 57 -22 0 -61 -32 -85 -71 -18 -30 -37 -49 -52 -51 -12 -2 -28 -14
-34 -27 -16 -31 -32 -41 -71 -41 -25 0 -35 6 -47 32 -28 56 -16 106 23 93 25
-8 29 18 6 41 -17 17 -20 60 -5 69 6 3 10 14 10 25 0 29 27 31 59 5 17 -15 42
-25 60 -25 27 0 34 6 46 32 11 27 11 37 0 57 -10 20 -10 31 3 63 14 35 14 40
0 54 -23 23 -55 9 -67 -29 -11 -33 -93 -111 -105 -100 -11 11 -6 47 9 76 8 16
19 46 25 67 12 45 46 76 101 90 33 9 40 16 49 49 13 49 45 79 68 64 14 -9 17
-27 17 -101 0 -59 4 -95 13 -103 6 -7 12 -21 12 -32 0 -19 -44 -69 -70 -80
-12 -5 -9 -11 13 -29 15 -13 27 -33 27 -45 0 -19 4 -20 64 -16 36 3 72 3 82
-1 16 -6 15 -8 -3 -29 -30 -32 -32 -48 -12 -87 17 -33 41 -123 54 -200 12 -76
75 -109 75 -40 0 35 27 53 41 28 5 -9 25 -19 44 -22 29 -6 35 -11 35 -32 0
-29 -31 -94 -54 -113 -20 -17 -20 -35 -1 -51 8 -7 15 -21 15 -31 0 -12 7 -19
20 -19 18 0 20 6 19 51 -3 83 10 88 123 49 51 -18 100 -41 109 -50 8 -10 21
-43 28 -74 12 -54 14 -56 45 -56 17 0 37 5 44 12 9 9 21 6 54 -12 24 -12 50
-29 59 -36 19 -17 61 -18 77 -2 7 7 12 29 12 50 0 27 4 38 15 38 10 0 15 -10
15 -34 0 -18 6 -49 14 -67 7 -19 17 -74 21 -124 4 -49 10 -94 14 -100 3 -5 11
-45 17 -87 9 -61 17 -82 35 -98 l24 -21 -22 -15 c-16 -12 -23 -27 -23 -50 0
-38 10 -42 54 -19 51 27 108 1 75 -32 -15 -15 -3 -33 21 -33 42 0 50 -14 100
-170 27 -87 50 -165 50 -174 0 -9 5 -16 11 -16 6 0 9 19 7 48 -3 41 -1 47 18
50 14 2 30 -8 48 -30 14 -18 31 -39 36 -45 12 -14 68 -7 87 11 6 6 15 33 18
59 l8 49 -45 -3 c-59 -4 -69 4 -57 41 15 41 25 46 106 54 l72 6 16 -30 c21
-40 167 -199 205 -223 19 -12 37 -16 48 -11 9 4 25 6 35 5 21 -3 22 21 6 101
-10 51 -10 57 9 76 31 31 37 84 17 134 -21 52 -102 132 -150 148 -37 12 -38
12 -76 -31 -21 -24 -43 -59 -49 -76 -11 -30 -40 -47 -40 -23 0 13 -46 13 -71
-1 -12 -6 -27 -8 -35 -5 -12 5 -11 11 3 41 16 33 16 38 1 62 -15 25 -15 28 4
53 24 33 16 74 -20 98 -48 31 -75 61 -68 77 7 19 25 19 47 -1 12 -11 27 -14
45 -10 l26 7 -7 87 c-4 48 -9 89 -11 91 -8 9 -36 -11 -41 -29 -8 -32 -21 -24
-47 33 -14 28 -39 64 -56 79 -38 33 -40 71 -5 94 22 14 25 24 25 73 0 82 -13
94 -96 99 -65 3 -71 2 -111 -29 -32 -25 -43 -40 -43 -61 0 -44 -30 -67 -76
-59 -33 5 -39 10 -42 33 -2 19 3 30 17 38 12 6 21 20 21 30 0 23 -31 27 -76
10 -40 -15 -47 -2 -39 75 9 80 40 125 86 125 20 0 29 5 29 16 0 28 40 84 61
84 10 0 29 11 41 25 41 47 64 21 33 -38 -14 -27 -13 -30 20 -63 19 -19 35 -38
35 -43 0 -5 9 -11 21 -14 17 -5 20 -1 17 26 -2 25 1 32 15 31 9 0 33 -1 52 -2
31 -2 39 -8 63 -47 15 -25 32 -45 39 -45 6 0 23 14 37 31 29 34 28 54 -5 99
-10 14 -25 51 -33 83 -21 82 -19 80 -100 73 -131 -13 -131 -13 -134 12 -2 12
1 22 7 22 19 0 12 28 -9 35 -24 7 -26 37 -5 55 22 18 43 5 53 -32 8 -31 11
-33 53 -31 34 2 49 8 66 29 15 19 33 28 58 30 43 4 61 23 71 74 8 41 21 60 41
60 10 0 14 -7 10 -19 -7 -30 11 -53 33 -41 45 24 52 2 19 -61 -11 -22 -19 -50
-17 -62 1 -12 -1 -28 -5 -34 -11 -18 -62 -16 -77 2 -15 18 -53 20 -48 3 3 -7
17 -19 32 -26 15 -8 37 -29 49 -48 14 -21 30 -34 44 -34 24 0 53 24 53 46 0 7
19 23 43 35 23 12 54 33 69 46 33 32 65 26 93 -17 18 -26 26 -30 67 -30 42 0
48 3 67 34 12 18 21 49 21 69 0 55 8 67 45 67 18 0 36 -6 38 -12 3 -7 6 5 6
27 1 23 -7 51 -17 66 -27 41 -96 123 -109 132 -7 4 -13 18 -13 30 0 13 -9 26
-22 32 -13 6 -27 22 -32 37 -8 23 -6 34 12 58 12 16 22 38 22 48 0 11 7 25 15
32 25 21 17 37 -28 54 -56 21 -57 21 -57 -13 0 -21 -9 -36 -34 -55 -29 -22
-38 -24 -64 -15 -28 10 -52 44 -52 74 0 8 -11 22 -25 31 -45 29 -22 99 24 74
13 -6 27 -7 38 -2 107 54 117 57 219 57 82 0 104 3 118 18 13 13 34 17 81 17
54 0 68 -4 85 -22 14 -15 19 -30 15 -43 -14 -46 -17 -93 -6 -99 18 -11 14
-140 -6 -181 -14 -30 -15 -40 -5 -56 7 -11 10 -24 7 -29 -9 -14 -57 -12 -97 4
-35 15 -100 9 -98 -9 3 -16 61 -42 115 -52 67 -11 69 -38 6 -70 -25 -13 -49
-27 -54 -32 -10 -10 2 -53 35 -133 17 -39 24 -46 45 -45 22 2 28 -4 40 -41 22
-64 4 -119 -57 -176 -61 -57 -89 -65 -129 -37 -56 40 -91 20 -91 -52 0 -46 17
-50 78 -22 48 22 51 22 66 6 18 -20 21 -47 6 -56 -16 -10 -12 -22 8 -27 15 -4
18 -12 14 -37 -5 -35 15 -72 54 -97 20 -14 30 -15 50 -5 19 8 42 9 88 0 l63
-10 61 63 c34 35 74 88 89 118 14 30 35 62 45 70 21 17 15 50 -8 50 -23 0 -16
27 12 49 57 44 128 36 178 -20 30 -33 34 -34 59 -15 16 13 17 19 6 56 -11 35
-10 43 2 51 22 14 41 11 82 -14 34 -20 45 -22 80 -14 88 19 91 21 98 56 9 45
19 52 79 62 63 10 97 -2 106 -36 8 -31 -19 -75 -46 -75 -33 0 -55 -71 -30 -96
18 -18 -1 -44 -51 -70 -52 -26 -58 -40 -33 -79 32 -48 127 -20 154 44 10 25
10 41 2 68 -6 20 -9 40 -6 44 9 15 94 41 116 36 13 -4 36 -26 52 -51 31 -49
47 -57 86 -44 31 11 90 85 108 135 19 54 9 136 -22 182 -20 29 -28 59 -41 161
-8 68 -15 130 -15 137 0 7 16 19 35 27 37 16 40 22 25 46 -11 18 -140 31 -140
14 0 -27 -45 -64 -108 -88 -51 -20 -72 -34 -89 -61 -13 -19 -23 -38 -23 -43 0
-14 -54 -60 -83 -71 -16 -6 -63 -11 -106 -11 -72 0 -81 3 -115 29 -33 26 -43
29 -85 24 -59 -7 -66 1 -92 109 -11 46 -28 95 -39 110 -11 15 -20 33 -20 40 0
7 21 44 45 82 50 77 55 111 29 186 -24 65 -21 137 6 190 12 25 29 49 36 53 8
4 14 17 14 28 0 29 34 90 69 123 38 36 38 42 4 51 -33 8 -73 42 -73 62 0 20
46 107 64 122 23 19 20 31 -8 31 -13 0 -29 7 -36 15 -19 22 -48 18 -77 -11
-24 -24 -25 -30 -19 -90 6 -60 5 -66 -19 -90 -22 -22 -31 -24 -69 -19 l-43 7
5 -31 c7 -48 -5 -77 -37 -91 -16 -6 -37 -20 -47 -31 -12 -14 -31 -19 -65 -19
-26 0 -51 -4 -54 -10 -3 -5 -25 -10 -49 -10 l-43 0 -46 138 c-25 75 -53 182
-62 237 -10 61 -28 124 -46 161 -33 69 -35 94 -15 132 8 15 24 54 36 88 21 59
72 134 91 134 5 0 9 -10 9 -23 0 -13 5 -28 12 -35 15 -15 51 -15 66 0 15 15
24 6 16 -15 -7 -20 -28 -29 -89 -36 -46 -6 -50 -8 -53 -35 -7 -61 27 -102 75
-90 12 4 24 -4 36 -25 23 -39 37 -39 37 -1 0 20 12 43 36 70 l37 40 52 -29
c76 -43 111 -47 189 -21 36 13 66 26 66 31 0 5 15 12 33 17 38 10 46 37 24 85
-8 18 -18 59 -22 91 -4 33 -9 64 -11 71 -3 6 11 28 31 48 40 42 44 67 13 102
-37 43 -103 27 -138 -32 -23 -39 -23 -39 -138 13 -60 28 -77 31 -92 22 -15
-10 -23 -9 -38 5 -15 13 -38 17 -110 17 -82 0 -92 -2 -92 -18 0 -10 6 -26 14
-37 11 -16 23 -17 89 -12 41 3 85 11 97 17 31 16 44 0 29 -34 -20 -43 -61 -58
-170 -62 -76 -3 -100 0 -109 11 -16 20 -45 19 -76 -1 -21 -14 -23 -22 -18 -50
14 -76 -20 -108 -64 -61 -26 27 -28 47 -7 47 29 0 14 27 -25 45 -29 13 -52 16
-89 11 -65 -9 -85 4 -121 74 -15 30 -42 65 -59 78 -26 19 -29 26 -21 42 8 15
6 19 -11 22 -14 2 -25 15 -34 40 -7 21 -10 40 -7 43 13 13 40 3 66 -24 17 -18
41 -31 60 -33 25 -2 36 -12 60 -54 l31 -52 58 2 58 1 -5 30 c-3 17 -8 44 -11
60 -8 37 18 74 55 77 32 4 38 -27 15 -72 -10 -19 -14 -42 -11 -56 6 -22 11
-24 70 -24 65 0 116 24 116 55 0 7 12 22 28 34 26 19 26 20 8 34 -26 19 -14
62 30 103 26 25 34 41 34 67 0 57 -26 71 -135 75 -94 4 -135 -6 -135 -32 0
-10 17 -12 73 -8 60 4 75 1 87 -13 13 -15 12 -19 -8 -35 -12 -10 -26 -30 -32
-44 -12 -32 -34 -42 -63 -28 -12 6 -40 13 -62 17 -22 3 -48 8 -57 11 -26 8
-22 45 8 69 38 30 26 65 -22 65 -24 0 -42 8 -58 25 -27 30 -38 31 -77 8 -27
-16 -30 -16 -46 0 -10 10 -28 25 -41 35 -21 16 -21 19 -7 46 24 45 18 59 -36
85 -46 21 -52 22 -67 8 -28 -26 -97 -32 -127 -13 -22 15 -26 23 -23 59 2 34 8
44 31 55 15 7 27 20 27 28 0 22 49 114 60 114 6 0 10 -5 10 -11 0 -28 -22
-157 -30 -176 -13 -31 7 -30 51 2 19 13 55 37 81 52 47 28 58 45 37 58 -5 4
-14 18 -19 31 -5 13 -21 29 -34 34 -32 12 -40 27 -20 38 15 8 15 10 0 15 -9 4
-16 13 -16 22 0 11 11 15 40 15 35 0 42 4 52 28 17 39 39 62 59 62 10 0 31 11
46 24 l28 24 -21 24 c-11 12 -26 37 -33 55 -19 47 -98 66 -181 42 -11 -3 -16
6 -18 31 -3 37 -33 69 -64 70 -27 0 -21 25 8 39 23 10 26 16 21 46 -3 19 -1
47 6 64 9 26 8 33 -16 64 -15 20 -27 43 -27 51 0 25 -110 22 -143 -4 -33 -26
-45 -25 -53 4 -3 14 -13 27 -21 30 -11 5 -13 14 -8 34 5 22 4 25 -6 15 -16
-15 -55 -17 -64 -3 -3 6 -22 10 -41 10 -59 0 -104 32 -104 74 0 16 70 106 82
106 6 0 12 -9 15 -20 5 -17 11 -19 52 -13 53 7 61 15 61 61 0 36 24 91 48 108
9 7 17 37 21 84 6 60 11 76 29 88 44 29 17 72 -46 72 -20 0 -35 8 -46 24 -41
63 -154 156 -189 156 -21 0 -37 31 -37 72 0 79 -66 104 -122 47 -17 -16 -36
-28 -43 -25 -7 2 -23 35 -35 72 -28 83 -49 105 -128 134 -38 14 -62 29 -65 41
-4 15 -11 17 -40 12 -43 -7 -120 27 -144 63 -8 13 -31 33 -50 45 -51 32 -63
58 -73 161 -9 91 -21 146 -61 281 -24 80 -65 132 -128 160 -60 26 -267 33
-359 12z m-286 -1612 c39 -57 64 -105 64 -123 0 -6 -9 -10 -20 -10 -13 0 -24
-10 -30 -25 -5 -14 -16 -25 -24 -25 -8 0 -18 -9 -21 -20 -9 -29 -43 -25 -55 6
-11 28 -14 237 -3 247 21 21 51 4 89 -50z m1467 -40 c32 -3 60 -10 63 -15 8
-13 -16 -38 -37 -38 -35 0 -49 -28 -49 -95 0 -54 3 -66 21 -79 15 -10 19 -20
14 -33 -4 -10 -7 -39 -6 -65 2 -27 -1 -48 -5 -48 -5 0 -22 13 -39 29 -20 20
-43 30 -69 33 -35 3 -40 0 -47 -24 -5 -18 -1 -36 12 -58 22 -36 18 -50 -17
-50 -29 0 -42 25 -26 51 7 10 12 21 12 24 0 9 -38 5 -64 -7 -32 -14 -40 -38
-28 -80 5 -18 7 -39 5 -45 -8 -23 -32 -14 -39 15 -4 15 -12 34 -18 42 -7 8
-18 28 -26 43 -8 16 -27 36 -42 45 -36 21 -30 38 12 34 47 -4 107 27 113 58 3
14 12 34 20 45 12 16 17 17 30 6 9 -7 17 -25 19 -39 4 -37 31 -35 38 3 4 24
13 32 40 41 29 9 36 17 38 42 5 45 -13 70 -59 82 -48 13 -68 45 -49 80 11 21
17 22 69 16 31 -4 82 -9 114 -13z m-1008 -191 l40 -37 -28 -3 c-40 -5 -56 3
-67 34 -10 25 -6 44 8 44 4 0 25 -17 47 -38z m44 -177 c27 -30 35 -34 52 -24
32 17 43 -2 23 -38 -17 -29 -17 -33 3 -93 20 -60 21 -62 34 -42 14 22 43 29
53 14 8 -13 -32 -110 -62 -153 -29 -41 -65 -59 -117 -59 -54 0 -62 20 -36 98
12 37 27 75 32 86 13 22 -16 58 -62 76 -34 15 -36 24 -9 68 11 18 20 43 20 55
0 22 16 47 30 47 4 0 21 -16 39 -35z m955 -256 c-2 -56 -12 -87 -33 -94 -12
-3 -21 -17 -23 -32 -7 -63 -46 -21 -63 69 -7 35 -5 38 36 68 57 41 84 37 83
-11z m82 11 c4 -16 13 -35 20 -41 8 -6 14 -22 14 -36 0 -21 -4 -23 -22 -18
-34 10 -58 43 -58 79 0 18 3 36 7 39 15 16 34 5 39 -23z m190 -82 c4 -6 3 -13
-3 -15 -21 -7 -41 -29 -48 -50 -6 -21 -3 -22 22 -18 15 3 34 2 41 -3 21 -14 2
-41 -33 -48 -24 -4 -36 -14 -48 -39 -17 -36 -14 -45 18 -45 25 0 45 -18 45
-39 0 -23 -64 -71 -94 -71 -38 0 -76 18 -76 35 0 12 8 16 28 13 21 -2 28 1 30
19 3 17 -7 26 -47 45 -49 22 -62 40 -41 53 6 3 10 21 10 40 0 28 5 35 29 43
16 6 32 19 35 29 3 11 28 29 54 40 56 25 68 27 78 11z m-1716 -358 c0 -5 -7
-10 -15 -10 -8 0 -15 5 -15 10 0 6 7 10 15 10 8 0 15 -4 15 -10z m1786 -345
c25 -19 54 -35 65 -35 21 0 45 -48 55 -110 11 -70 -45 -78 -95 -13 -98 124
-114 156 -89 181 16 16 11 17 64 -23z m294 -50 c17 -35 27 -45 45 -45 22 0 75
-44 75 -62 0 -18 -23 -17 -48 1 -34 24 -125 61 -151 61 -14 0 -17 -6 -13 -25
6 -33 -16 -33 -52 0 -33 30 -33 51 -1 81 20 18 32 22 60 17 23 -4 35 -2 35 6
0 27 30 7 50 -34z m230 -104 c-1 -31 -53 -86 -73 -78 -8 3 -17 17 -21 32 -6
22 0 33 31 64 33 34 40 36 51 23 6 -9 12 -27 12 -41z m-2032 4 c9 -20 19 -25
46 -25 33 0 66 -21 66 -41 0 -21 -22 -50 -43 -58 -15 -6 -34 -2 -62 13 -21 11
-55 20 -75 21 -31 0 -35 3 -38 28 -3 22 1 30 18 34 12 3 26 16 31 29 11 31 43
31 57 -1z m1386 -135 c14 -13 -42 -62 -66 -58 -20 3 -60 55 -52 69 5 8 107 -2
118 -11z m309 -34 c9 -23 -4 -56 -23 -56 -25 0 -43 25 -35 50 7 23 50 28 58 6z
m34 -118 c-3 -8 -6 -5 -6 6 -1 11 2 17 5 13 3 -3 4 -12 1 -19z m-190 -11 c4
-8 21 -13 37 -13 28 1 30 -2 42 -64 8 -36 18 -66 24 -68 19 -7 10 -24 -10 -19
-23 6 -47 -10 -63 -43 -7 -14 -20 -26 -30 -28 -26 -5 -32 26 -13 60 11 17 15
36 10 46 -4 9 -6 23 -5 30 1 8 -14 12 -49 12 -27 0 -50 4 -50 10 0 5 14 23 30
40 17 17 30 35 30 40 0 15 38 12 47 -3z m189 -42 c13 -19 25 -25 67 -27 50 -3
52 -4 52 -33 0 -28 -2 -30 -35 -28 -19 1 -48 2 -65 3 -16 1 -41 0 -55 -2 -23
-3 -25 0 -24 39 1 40 17 73 35 73 5 0 16 -11 25 -25z m-3581 -5 c31 -35 13
-50 -60 -50 -36 0 -65 4 -65 10 0 13 71 60 91 60 9 0 24 -9 34 -20z m1224
-123 c5 -18 12 -45 16 -62 7 -33 41 -75 61 -75 25 0 23 -17 -6 -56 l-28 -40
27 -69 c20 -50 36 -74 54 -83 44 -21 48 -41 24 -112 -25 -73 -57 -98 -130
-102 l-42 -3 -3 43 c-4 48 -13 53 -32 17 -16 -30 -36 -32 -45 -5 -4 13 2 33
15 55 19 30 27 35 60 35 40 0 50 11 50 54 0 15 -9 25 -31 33 -30 12 -31 14
-25 58 6 37 5 45 -9 45 -8 0 -20 10 -26 23 -13 30 2 72 27 72 14 0 20 8 22 31
2 24 -2 33 -23 42 -23 11 -55 64 -55 91 0 14 62 50 76 44 7 -3 17 -19 23 -36z
m2449 -132 c2 -28 7 -54 12 -59 5 -5 -1 -21 -13 -38 -18 -25 -19 -30 -7 -38
20 -13 54 -12 67 1 14 14 33 3 33 -20 0 -39 -80 -81 -153 -81 -41 0 -66 -35
-67 -91 0 -57 16 -73 62 -64 61 12 67 16 78 50 6 19 16 35 22 35 5 0 28 -14
50 -32 36 -28 39 -34 33 -62 -4 -17 -9 -59 -12 -93 -3 -36 -11 -67 -19 -74
-21 -18 -62 -14 -87 8 -12 11 -40 23 -61 26 -28 5 -52 18 -80 46 -23 22 -62
49 -88 60 -27 11 -48 27 -48 34 0 8 16 27 35 41 19 15 35 36 35 46 0 13 12 25
35 34 19 8 35 22 35 30 0 8 9 24 21 35 18 16 20 26 14 60 -6 38 -9 41 -33 35
-15 -4 -34 -13 -43 -20 -26 -23 -29 -17 -29 51 0 36 3 65 6 65 4 0 21 -13 38
-28 27 -23 39 -27 74 -24 l41 4 -6 44 c-6 48 8 77 36 72 12 -2 17 -17 19 -53z
m-1856 -110 c9 -19 19 -25 45 -25 28 0 33 -3 33 -24 0 -16 7 -26 21 -29 12 -3
19 -11 17 -19 -7 -18 -147 -12 -169 8 -8 8 -21 14 -27 14 -22 0 -24 22 -3 44
13 14 19 29 15 39 -5 14 0 17 25 17 24 0 34 -6 43 -25z m-321 -76 c16 -11 29
-29 29 -41 0 -19 -4 -20 -62 -13 -78 9 -89 17 -58 50 29 30 53 32 91 4z m-687
-5 c9 -24 -13 -45 -43 -42 -25 3 -26 1 -32 -62 -3 -36 -1 -72 5 -81 15 -27 0
-47 -65 -88 l-62 -39 -35 23 -34 23 -68 -35 c-68 -34 -68 -34 -102 -17 -18 9
-51 36 -73 60 -22 23 -59 52 -82 63 -42 21 -67 61 -43 69 7 3 38 18 68 33 32
17 70 29 92 29 22 0 42 5 45 10 12 20 37 9 48 -20 13 -33 17 -34 130 -23 l67
6 10 38 c12 42 19 49 64 60 57 13 103 10 110 -7z m2415 -18 c19 -20 22 -31 17
-60 -5 -27 -12 -36 -26 -36 -21 0 -27 -24 -10 -35 6 -3 10 -19 10 -35 0 -34
-29 -49 -47 -25 -13 19 -33 12 -33 -11 0 -8 -5 -14 -12 -14 -16 0 -108 91
-108 107 0 7 7 31 16 53 15 37 19 40 53 40 24 0 42 7 54 20 23 27 59 25 86 -4z
m-2299 -198 c24 -29 45 -62 46 -75 0 -13 9 -30 20 -37 15 -11 19 -27 19 -70 0
-32 -5 -60 -13 -68 -18 -18 -89 -13 -144 11 -26 11 -63 23 -83 27 -19 3 -35
10 -35 14 0 4 16 34 35 66 20 32 40 77 46 99 25 103 44 108 109 33z m499 -62
c9 -11 9 -30 -2 -83 -17 -83 -35 -89 -58 -18 -9 28 -22 51 -30 53 -18 3 -66
-46 -71 -73 -6 -34 -32 -23 -41 19 -8 34 -7 41 16 64 24 23 38 28 168 51 4 0
12 -5 18 -13z m752 -139 c5 -34 3 -41 -22 -60 -35 -25 -45 -53 -28 -73 8 -10
9 -18 2 -25 -8 -8 -20 3 -42 34 -17 25 -40 49 -51 52 -39 12 -16 60 33 69 19
4 42 15 53 27 26 29 48 20 55 -24z m1637 -3 c18 -13 22 -25 22 -71 0 -44 5
-62 21 -79 28 -30 17 -44 -38 -44 -25 0 -60 -7 -78 -16 -56 -26 -70 -17 -73
49 -3 57 -3 58 32 72 30 13 38 23 47 60 12 49 29 56 67 29z m-2441 -31 c10
-16 33 -42 50 -59 43 -41 42 -60 -4 -81 -21 -9 -40 -18 -43 -20 -3 -2 -14 14
-25 34 -11 21 -32 50 -47 65 -32 30 -36 62 -10 77 31 19 61 12 79 -16z m1757
-153 c26 0 56 -32 56 -61 0 -46 134 -175 200 -192 35 -10 74 -42 66 -55 -4 -7
-23 -9 -51 -5 -45 6 -45 6 -45 -25 0 -22 -6 -32 -20 -37 -16 -5 -20 -15 -20
-47 0 -44 -22 -50 -28 -7 -2 13 -8 30 -14 36 -7 9 -3 22 16 44 30 35 36 75 9
65 -16 -7 -93 39 -93 55 0 15 -29 10 -58 -8 -40 -26 -43 -33 -38 -85 8 -80
-14 -69 -88 45 -31 47 -37 65 -34 95 3 26 0 41 -11 49 -15 11 -15 12 0 13 9 0
24 -9 34 -20 25 -27 32 -25 40 10 5 22 1 37 -14 56 -43 55 -14 116 41 88 15
-8 38 -14 52 -14z m-819 -95 c0 -54 -2 -60 -24 -65 -14 -3 -32 -22 -46 -49
-29 -54 -23 -49 -84 -65 -56 -14 -65 -10 -55 29 5 22 1 32 -26 56 -29 27 -31
31 -18 51 16 24 27 30 73 45 19 5 40 5 56 -1 35 -12 56 -3 77 34 28 49 47 35
47 -35z m1330 16 c0 -13 -10 -30 -22 -38 -19 -13 -24 -12 -54 15 -45 41 -36
60 27 53 43 -5 49 -9 49 -30z m932 -39 c20 -16 53 -105 53 -143 0 -9 -16 -36
-35 -59 -26 -31 -33 -48 -29 -65 3 -14 -1 -36 -12 -54 -16 -26 -16 -34 -4 -71
13 -39 12 -41 -15 -70 -33 -35 -55 -39 -55 -10 0 12 -10 25 -24 31 -28 13 -36
48 -36 156 0 83 6 103 30 103 33 0 49 33 56 118 6 75 9 82 28 82 12 0 31 -8
43 -18z m-2121 -61 c19 16 36 1 28 -24 -19 -61 -87 -113 -109 -84 -5 7 -18 16
-27 20 -22 8 -23 45 -3 74 13 19 19 20 56 12 28 -7 45 -6 55 2z m64 -173 c0
-18 -51 -88 -72 -99 -10 -5 -18 -16 -18 -24 0 -8 -27 -35 -60 -60 -47 -36 -60
-52 -60 -73 0 -37 14 -56 38 -50 30 8 52 -10 52 -42 0 -34 -2 -35 -31 -17 -17
10 -22 9 -39 -13 -18 -24 -20 -24 -61 -10 -57 20 -70 43 -41 70 24 23 27 46
11 103 -9 35 -8 41 16 65 20 19 37 26 71 27 38 2 50 8 92 51 27 27 52 57 55
67 7 19 47 24 47 5z m519 -134 c12 -11 16 -11 26 3 11 15 16 13 44 -20 69 -78
111 -156 111 -206 0 -15 -10 -47 -22 -71 -17 -34 -28 -44 -42 -42 -12 2 -27
-6 -37 -19 -16 -22 -19 -22 -73 -10 -30 7 -65 20 -76 29 -24 19 -42 76 -46
142 -1 25 -2 51 -3 59 -1 9 -9 11 -26 7 -33 -8 -42 13 -27 62 10 30 21 42 64
64 54 27 81 27 107 2z m-1011 -37 c10 -21 20 -27 45 -27 49 0 59 -11 55 -61
-3 -43 -4 -44 -40 -47 -24 -2 -41 2 -50 13 -19 23 -31 34 -51 48 -27 19 -39
74 -20 92 21 22 45 15 61 -18z m1342 -201 c12 -36 11 -41 -9 -57 -11 -9 -21
-24 -21 -33 0 -26 -22 -30 -42 -6 -29 35 -23 86 13 122 34 34 41 31 59 -26z
m-2032 -158 c17 -17 15 -83 -3 -118 -18 -34 -18 -34 -48 -19 -43 23 -43 44 0
112 25 40 32 44 51 25z m860 -22 c2 -10 -2 -22 -10 -27 -38 -25 -79 11 -42 38
24 18 48 13 52 -11z m132 -136 c0 -5 -4 -10 -10 -10 -5 0 -10 5 -10 10 0 6 5
10 10 10 6 0 10 -4 10 -10z m818 -626 c19 -13 22 -24 20 -57 -4 -56 -32 -63
-53 -15 -27 66 -29 88 -8 88 10 0 29 -7 41 -16z m116 -114 c14 -17 28 -46 32
-65 6 -32 8 -33 40 -28 31 5 34 3 34 -18 0 -19 -9 -28 -43 -41 -23 -10 -48
-18 -54 -18 -14 0 -33 31 -33 55 0 10 -11 30 -25 47 -29 35 -31 54 -8 80 22
24 27 23 57 -12z m19 -346 c5 -16 27 -47 48 -69 22 -23 39 -49 39 -58 0 -10
12 -29 26 -42 21 -20 24 -27 14 -44 -14 -28 -49 -27 -110 4 -27 14 -55 25 -61
25 -19 0 -49 31 -49 51 0 10 11 26 25 35 21 14 25 24 25 68 0 29 3 56 7 60 12
12 27 0 36 -30z m486 -290 c17 -14 29 -30 25 -35 -6 -10 -104 -12 -128 -3 -9
3 -16 14 -16 23 0 47 71 56 119 15z"/>
<path d="M4670 3796 c0 -18 -3 -54 -6 -80 -7 -47 -7 -48 21 -44 21 2 38 18 71
66 28 39 39 62 30 62 -7 0 -27 7 -42 15 -16 8 -39 15 -51 15 -19 0 -23 -5 -23
-34z"/>
<path d="M4443 8764 c-7 -20 8 -48 29 -52 22 -4 29 22 12 47 -18 25 -32 27
-41 5z"/>
<path d="M7750 8749 c0 -10 -13 -25 -30 -34 -16 -8 -33 -27 -36 -41 -10 -39
16 -142 43 -175 23 -27 29 -29 103 -29 l77 0 37 47 c43 56 48 111 15 168 -24
40 -46 55 -81 55 -13 0 -28 4 -33 9 -6 5 -29 11 -52 14 -37 4 -43 3 -43 -14z"/>
<path d="M7312 8698 c-19 -19 -14 -30 10 -26 13 2 24 11 26 21 4 20 -18 23
-36 5z"/>
<path d="M2668 8629 c-34 -36 -35 -60 -6 -134 20 -53 21 -62 9 -119 -7 -33
-17 -66 -21 -71 -11 -13 6 -103 25 -132 11 -16 25 -23 46 -23 49 0 69 16 69
55 0 58 30 159 53 177 18 13 19 20 10 40 -5 12 -7 32 -4 43 3 11 6 49 6 84 l0
64 -40 23 c-58 33 -112 31 -147 -7z"/>
<path d="M4415 8609 c-8 -11 19 -45 48 -61 18 -9 47 4 47 23 0 31 -80 64 -95
38z"/>
<path d="M2360 8575 c0 -23 -5 -46 -12 -53 -17 -17 2 -33 30 -26 27 8 28 20 2
75 l-20 44 0 -40z"/>
<path d="M5022 8538 c-17 -17 -15 -67 4 -75 26 -10 50 22 38 54 -11 31 -25 38
-42 21z"/>
<path d="M9196 8481 c-9 -10 -19 -34 -22 -53 -5 -30 -2 -38 21 -56 34 -27 110
-31 119 -6 9 24 7 73 -4 94 -9 17 -58 40 -85 40 -7 0 -20 -8 -29 -19z"/>
<path d="M2240 8462 c0 -18 46 -77 63 -80 31 -6 18 25 -23 58 -22 17 -40 27
-40 22z"/>
<path d="M5027 8443 c-4 -3 -7 -19 -7 -35 0 -21 5 -28 20 -28 14 0 20 7 20 24
0 25 -22 51 -33 39z"/>
<path d="M5501 8299 l-34 -40 21 -44 c23 -47 53 -68 115 -79 57 -11 67 3 67
90 0 66 -2 75 -23 89 -13 8 -43 17 -68 20 -42 4 -46 2 -78 -36z"/>
<path d="M4824 8252 c-17 -15 -36 -42 -43 -61 -10 -31 -9 -37 11 -58 25 -27
40 -29 73 -7 23 15 25 23 25 85 0 80 -13 88 -66 41z"/>
<path d="M9127 8273 c-14 -14 -6 -64 14 -84 14 -14 27 -18 42 -13 29 9 37 22
37 67 l0 37 -43 0 c-24 0 -47 -3 -50 -7z"/>
<path d="M5072 8247 c-26 -27 -30 -77 -7 -77 17 0 55 56 55 83 0 24 -22 21
-48 -6z"/>
<path d="M7330 8255 c0 -9 9 -15 25 -15 16 0 25 6 25 15 0 9 -9 15 -25 15 -16
0 -25 -6 -25 -15z"/>
<path d="M2435 8249 c-47 -23 -49 -104 -4 -145 16 -15 24 -15 66 -4 56 16 63
23 63 71 0 64 -67 106 -125 78z"/>
<path d="M5352 8228 c-6 -7 -13 -25 -17 -39 -6 -25 -4 -27 35 -31 53 -5 62 2
58 43 -3 30 -7 34 -34 37 -17 2 -36 -3 -42 -10z"/>
<path d="M1168 8191 c-55 -26 -98 -90 -98 -145 0 -38 5 -48 35 -75 40 -35 44
-36 115 -19 39 9 60 21 86 51 34 37 35 42 29 86 -11 76 -16 88 -40 99 -45 20
-89 22 -127 3z"/>
<path d="M1438 8139 c-10 -6 -18 -14 -18 -19 0 -13 21 -12 40 0 22 14 0 32
-22 19z"/>
<path d="M7838 8130 c-91 -7 -128 -23 -149 -61 -6 -12 -40 -49 -75 -81 l-64
-60 0 -87 c0 -48 -7 -113 -16 -146 -9 -33 -22 -86 -30 -118 -17 -71 -38 -113
-74 -152 -40 -42 -80 -126 -80 -168 0 -27 10 -47 45 -89 70 -81 74 -128 11
-128 -50 0 -83 -18 -95 -52 l-10 -28 -53 20 c-29 11 -54 20 -55 20 -1 0 -16
25 -33 55 -46 81 -90 86 -135 17 -11 -17 -33 -36 -48 -41 -26 -9 -28 -14 -25
-53 3 -40 6 -45 52 -68 72 -37 90 -66 90 -149 1 -59 -2 -73 -21 -93 -27 -28
-29 -54 -8 -94 8 -16 15 -36 15 -45 0 -31 32 -109 45 -109 14 0 19 11 30 65 3
19 18 38 39 52 42 27 70 84 61 125 -7 30 -7 31 26 24 19 -3 50 -2 69 4 40 11
70 5 70 -15 0 -8 19 -26 42 -42 24 -16 51 -47 65 -73 35 -67 67 -92 116 -88
71 5 74 62 6 102 -16 10 -53 42 -82 71 -29 30 -65 58 -80 64 -63 24 -33 71 72
111 30 12 67 30 83 41 25 18 28 27 28 73 0 64 15 81 64 73 38 -6 112 -51 120
-73 9 -23 -15 -63 -51 -85 -39 -24 -44 -49 -10 -49 15 0 37 15 59 39 42 47 78
56 166 42 47 -7 72 -18 97 -40 20 -17 54 -33 83 -40 27 -5 72 -19 101 -31 28
-11 64 -20 79 -20 37 0 109 23 170 54 46 23 53 31 67 78 27 92 46 113 151 164
65 32 76 42 145 137 l74 102 3 76 c3 56 0 84 -12 107 -9 18 -16 55 -16 87 0
68 -16 108 -64 159 -26 29 -36 49 -36 72 0 81 -88 191 -190 238 -30 14 -60 26
-66 26 -6 0 -19 9 -29 20 -25 28 -71 38 -247 55 -158 15 -339 17 -490 5z"/>
<path d="M1546 8081 c-7 -11 -88 -51 -104 -51 -16 0 -15 -21 4 -58 15 -31 17
-32 92 -34 181 -4 296 4 335 23 20 11 37 23 37 28 0 5 -17 28 -39 51 l-39 43
-49 -12 c-41 -10 -57 -9 -94 3 -49 17 -135 21 -143 7z"/>
<path d="M2580 8052 c-27 -8 -40 -35 -40 -81 0 -65 10 -77 51 -62 66 23 86 63
53 109 -19 27 -44 41 -64 34z"/>
<path d="M5973 8038 c-50 -24 -33 -78 24 -78 32 0 43 45 17 70 -15 14 -24 16
-41 8z"/>
<path d="M6544 8023 c-8 -32 4 -54 39 -71 31 -15 32 -18 12 -67 -14 -33 -14
-42 0 -90 9 -32 29 -68 49 -89 31 -33 38 -36 90 -36 44 0 68 6 111 31 67 38
95 80 95 143 0 58 -18 86 -79 125 -40 26 -58 31 -109 31 -51 0 -65 -4 -92 -26
-38 -32 -56 -22 -40 21 15 40 6 55 -34 55 -30 0 -37 -4 -42 -27z"/>
<path d="M6391 7961 c-32 -44 -27 -51 34 -51 54 0 55 0 55 29 0 33 -2 35 -42
45 -22 5 -30 1 -47 -23z"/>
<path d="M2452 7938 c-22 -29 -42 -79 -42 -108 0 -20 -6 -32 -17 -36 -33 -9
-66 -29 -70 -40 -2 -6 8 -28 23 -49 18 -27 24 -46 20 -66 -3 -17 0 -32 9 -39
10 -8 12 -26 8 -64 -3 -31 0 -69 7 -90 10 -32 10 -39 -4 -49 -22 -18 -36 -62
-36 -119 0 -35 -6 -58 -20 -75 -11 -14 -20 -33 -20 -42 0 -24 -20 -41 -49 -42
-25 -1 -25 -1 6 -15 18 -7 37 -23 43 -34 6 -11 24 -27 40 -35 16 -8 32 -26 36
-39 9 -37 41 -40 48 -5 3 18 20 39 45 56 44 31 81 88 81 125 0 14 11 46 25 72
26 49 32 104 15 137 -9 15 -22 19 -68 19 -78 0 -85 6 -77 66 10 69 19 77 77
69 l48 -7 0 40 c0 60 57 97 90 57 28 -34 50 -11 50 51 0 22 -5 34 -14 34 -7 0
-26 10 -41 22 -23 18 -32 20 -55 11 -32 -12 -59 5 -78 50 -6 15 -16 27 -22 27
-5 0 -10 24 -10 53 0 65 -23 96 -48 65z"/>
<path d="M2744 7935 c-8 -21 4 -35 32 -35 26 0 32 18 12 38 -16 16 -37 15 -44
-3z"/>
<path d="M5723 7923 c-7 -2 -13 -11 -13 -19 0 -21 44 -17 65 6 18 20 17 20
-11 19 -16 0 -35 -3 -41 -6z"/>
<path d="M4305 7860 c-9 -28 11 -50 46 -50 24 0 29 4 29 25 0 41 -63 62 -75
25z"/>
<path d="M3456 7832 c-9 -14 27 -73 59 -98 39 -29 45 -30 45 -3 0 58 -81 137
-104 101z"/>
<path d="M5213 7763 c-18 -4 -23 -11 -23 -38 0 -48 43 -62 80 -25 24 24 25 34
4 54 -16 16 -21 17 -61 9z"/>
<path d="M784 7691 c-45 -28 -47 -34 -19 -84 25 -44 27 -45 86 -52 40 -5 68
-14 81 -27 18 -18 21 -18 37 -4 10 9 27 16 39 16 20 0 42 26 42 50 0 6 -11 15
-25 20 -14 5 -28 18 -32 27 -3 10 -17 30 -31 46 -23 24 -33 27 -86 27 -42 0
-71 -6 -92 -19z"/>
<path d="M574 7670 c3 -17 20 -51 36 -76 49 -70 100 -93 100 -45 0 21 -46 92
-67 105 -8 4 -22 17 -31 27 -26 30 -46 24 -38 -11z"/>
<path d="M7293 7633 c-7 -2 -13 -18 -13 -34 0 -38 36 -42 46 -5 9 37 -3 52
-33 39z"/>
<path d="M3444 7475 c-8 -31 6 -48 32 -43 29 5 26 62 -3 66 -17 3 -24 -3 -29
-23z"/>
<path d="M4055 7463 c-11 -26 -35 -166 -29 -172 2 -2 14 5 27 17 16 15 36 22
63 22 22 0 45 5 52 12 13 13 17 114 5 121 -5 3 -31 8 -59 12 -44 6 -52 4 -59
-12z"/>
<path d="M2660 7451 c-14 -27 -12 -43 9 -68 24 -29 25 -29 50 6 l21 29 -21 26
c-24 31 -44 33 -59 7z"/>
<path d="M1190 7425 c-13 -16 -7 -60 12 -82 6 -7 28 -13 49 -13 38 0 39 1 39
34 0 24 -6 38 -22 48 -39 25 -64 30 -78 13z"/>
<path d="M5180 7309 c0 -6 14 -29 31 -51 22 -27 38 -38 53 -36 33 5 31 35 -4
68 -31 29 -80 41 -80 19z"/>
<path d="M5080 7197 c-29 -14 -38 -42 -17 -50 8 -3 48 -9 87 -13 l73 -7 -19
32 c-12 20 -31 35 -54 41 -43 12 -40 12 -70 -3z"/>
<path d="M5534 7145 c-6 -25 -7 -45 -4 -45 16 0 40 39 40 63 0 44 -25 31 -36
-18z"/>
<path d="M1795 7090 c-16 -4 -47 -11 -67 -14 -48 -9 -68 -44 -68 -119 0 -42 5
-58 21 -73 12 -10 33 -44 46 -76 28 -64 86 -117 136 -124 17 -3 66 -1 107 3
58 7 74 12 71 23 -7 24 -5 41 14 120 33 140 33 135 -21 189 -43 42 -58 50
-123 65 -40 9 -76 16 -80 15 -3 0 -19 -4 -36 -9z"/>
<path d="M9055 7000 c-4 -6 8 -24 26 -41 28 -26 34 -28 46 -16 12 12 9 18 -21
40 -39 30 -42 31 -51 17z"/>
<path d="M6805 6947 c-47 -18 -75 -37 -75 -48 0 -6 9 -24 21 -40 17 -24 24
-27 35 -18 8 6 14 20 14 30 0 10 14 34 31 54 32 36 26 42 -26 22z"/>
<path d="M670 6900 c-8 -5 -30 -10 -47 -10 -32 0 -33 -1 -35 -47 -3 -111 3
-125 62 -152 44 -20 54 -21 87 -11 56 18 73 37 73 81 0 95 -82 176 -140 139z"/>
<path d="M2663 6832 c-6 -4 -14 -19 -18 -32 -5 -19 0 -31 19 -49 30 -28 56
-22 56 14 0 25 -26 75 -39 75 -3 0 -11 -4 -18 -8z"/>
<path d="M6918 6828 c-9 -7 -23 -25 -33 -40 -16 -26 -16 -28 0 -28 26 0 75 39
75 61 0 22 -19 25 -42 7z"/>
<path d="M6217 6782 c-19 -21 -35 -92 -21 -92 19 1 85 72 82 88 -5 24 -41 26
-61 4z"/>
<path d="M890 6743 c-29 -5 -60 -41 -53 -60 5 -14 69 -18 76 -5 10 16 18 72
10 71 -4 -1 -19 -4 -33 -6z"/>
<path d="M8524 6706 c-3 -8 -4 -29 -2 -47 3 -29 8 -34 38 -41 48 -10 60 -4 60
31 0 47 -81 95 -96 57z"/>
<path d="M6820 6681 c0 -32 23 -47 54 -35 35 13 11 64 -31 64 -19 0 -23 -5
-23 -29z"/>
<path d="M6297 6673 c-14 -13 -7 -101 9 -117 19 -19 58 -21 72 -3 33 40 -45
156 -81 120z"/>
<path d="M1560 6637 c-17 -9 -26 -22 -28 -45 l-3 -32 50 0 c44 0 53 4 68 26
16 26 16 27 -6 45 -27 22 -46 24 -81 6z"/>
<path d="M2106 6643 c-28 -5 -29 -5 -22 -60 8 -68 10 -72 52 -89 44 -18 98
-18 114 1 22 26 6 96 -30 128 -30 27 -47 30 -114 20z"/>
<path d="M511 6626 c-16 -19 -8 -46 13 -46 20 0 29 31 13 47 -12 12 -16 12
-26 -1z"/>
<path d="M5913 6584 c-10 -26 14 -41 35 -21 15 16 15 19 2 27 -21 14 -30 12
-37 -6z"/>
<path d="M6781 6515 c-7 -30 -17 -57 -22 -60 -5 -4 -9 -16 -9 -28 1 -20 2 -21
14 -4 19 25 62 21 88 -8 17 -19 31 -25 65 -25 37 0 43 3 43 20 0 13 -10 24
-27 31 -35 13 -43 26 -43 71 0 42 -19 58 -68 58 -27 0 -30 -4 -41 -55z"/>
<path d="M5765 6484 c-32 -29 -37 -37 -25 -45 35 -23 145 25 138 60 -2 10 -15
17 -38 18 -28 2 -43 -5 -75 -33z"/>
<path d="M5900 6394 c-71 -47 -88 -54 -103 -44 -16 9 -20 7 -30 -19 -19 -52
-80 -36 -129 34 -30 43 -34 45 -80 45 -43 0 -50 -3 -58 -25 -5 -14 -16 -25
-25 -25 -8 0 -15 -4 -15 -10 0 -5 5 -10 11 -10 7 0 31 -21 55 -46 46 -50 48
-51 131 -20 39 15 47 14 106 -4 56 -17 66 -25 83 -57 26 -53 44 -73 64 -73 10
0 29 -9 43 -20 27 -21 69 -25 151 -14 37 5 50 12 58 30 9 20 6 29 -26 64 -20
22 -36 44 -36 49 0 19 31 32 99 40 92 12 131 39 131 92 0 32 -25 44 -69 34
-18 -4 -41 -1 -59 9 -20 10 -39 12 -64 7 -24 -6 -43 -4 -59 5 -49 27 -90 17
-179 -42z"/>
<path d="M7713 6393 c-27 -10 -11 -23 27 -23 40 0 53 13 24 24 -18 7 -33 7
-51 -1z"/>
<path d="M7050 6372 c0 -14 23 -32 40 -32 9 0 25 -9 36 -21 10 -12 32 -28 47
-36 25 -13 32 -12 65 4 28 14 37 24 37 43 0 14 4 31 8 38 6 9 -18 12 -112 12
-67 0 -121 -4 -121 -8z"/>
<path d="M6466 6354 c-9 -8 -16 -21 -16 -28 0 -8 -25 -44 -55 -82 -53 -67 -70
-114 -45 -129 6 -3 10 -15 10 -25 0 -24 18 -36 33 -21 6 6 23 11 37 11 14 0
30 8 38 20 11 17 23 20 97 20 95 0 106 8 108 77 1 30 -7 43 -55 89 -54 50
-105 84 -127 84 -5 0 -17 -7 -25 -16z"/>
<path d="M6871 6263 c-27 -40 -31 -55 -31 -113 0 -64 2 -70 40 -118 22 -27 40
-55 40 -61 0 -6 11 -11 25 -11 14 0 25 4 25 9 0 35 -32 167 -47 192 -18 30
-17 31 2 47 14 12 20 31 22 60 1 38 -1 42 -22 42 -16 0 -32 -14 -54 -47z"/>
<path d="M1668 6193 c-37 -15 -38 -16 -38 -68 0 -68 12 -79 71 -62 42 12 44
15 47 54 2 27 -3 51 -14 68 -19 29 -17 29 -66 8z"/>
<path d="M900 6151 c0 -38 13 -46 35 -21 21 23 13 50 -15 50 -15 0 -20 -7 -20
-29z"/>
<path d="M7860 6168 c1 -19 72 -94 97 -102 12 -4 24 -2 28 3 9 15 -20 66 -51
90 -29 23 -74 28 -74 9z"/>
<path d="M7100 6146 c-6 -17 -22 -29 -50 -37 -39 -12 -40 -13 -40 -56 0 -41 3
-45 47 -73 60 -38 76 -35 84 14 4 22 14 45 23 51 16 12 23 65 8 65 -4 0 -13
14 -19 30 -14 36 -40 39 -53 6z"/>
<path d="M516 6117 c-16 -12 -16 -14 3 -31 11 -10 40 -21 64 -23 68 -8 72 19
8 50 -41 20 -52 21 -75 4z"/>
<path d="M1961 6111 c-12 -8 -13 -14 -3 -36 18 -40 15 -45 -26 -45 -21 0 -43
-5 -50 -12 -16 -16 -15 -73 2 -87 16 -13 74 -4 96 15 8 7 27 16 42 19 33 8 27
25 -8 25 -37 0 -42 28 -9 54 51 41 10 101 -44 67z"/>
<path d="M7464 6089 c-3 -6 -37 -30 -73 -54 -37 -24 -73 -51 -81 -60 -19 -23
-7 -116 35 -265 20 -70 35 -149 35 -180 1 -69 38 -184 62 -188 9 -2 24 5 32
15 9 10 34 39 55 64 73 83 75 127 26 489 -17 121 -66 219 -91 179z"/>
<path d="M2200 6050 c0 -19 7 -33 19 -40 26 -14 28 -13 34 12 8 29 -9 58 -33
58 -15 0 -20 -7 -20 -30z"/>
<path d="M207 6054 c-4 -4 -7 -18 -7 -31 0 -18 5 -23 28 -23 36 0 55 13 50 36
-3 19 -56 32 -71 18z"/>
<path d="M8100 6016 c0 -17 7 -26 25 -30 14 -4 30 -4 35 -1 16 10 11 34 -9 45
-33 17 -51 12 -51 -14z"/>
<path d="M6440 5956 c-29 -32 -22 -49 28 -65 36 -12 44 -12 86 10 42 21 67 49
31 35 -9 -3 -34 5 -55 19 -49 31 -61 31 -90 1z"/>
<path d="M12742 5968 c-18 -18 -14 -28 12 -28 31 0 53 25 30 34 -22 9 -28 8
-42 -6z"/>
<path d="M90 5940 c0 -17 37 -30 86 -30 46 0 47 0 29 20 -13 15 -31 20 -67 20
-26 0 -48 -4 -48 -10z"/>
<path d="M6806 5914 c-8 -20 3 -84 17 -101 5 -7 16 -13 23 -13 21 0 19 116 -2
124 -24 9 -31 7 -38 -10z"/>
<path d="M1090 5856 c0 -26 23 -56 43 -56 7 0 23 9 37 19 24 19 24 20 6 40
-12 13 -31 21 -53 21 -28 0 -33 -3 -33 -24z"/>
<path d="M6125 5833 c-22 -60 -31 -71 -57 -75 -12 -2 -23 -7 -24 -13 -4 -13
59 -53 94 -61 15 -3 85 -19 155 -37 121 -30 129 -31 141 -14 7 9 27 22 44 28
22 7 31 18 36 41 10 52 7 96 -10 112 -35 36 -64 7 -64 -64 0 -33 -4 -42 -24
-51 -20 -10 -29 -8 -52 10 -15 11 -33 21 -40 21 -22 0 -54 51 -54 86 0 38 -24
48 -35 14 -8 -26 -34 -52 -45 -45 -5 3 -5 16 1 29 14 29 -3 66 -30 66 -13 0
-24 -15 -36 -47z"/>
<path d="M2160 5842 c0 -16 28 -34 47 -30 31 6 21 33 -14 36 -18 2 -33 -1 -33
-6z"/>
<path d="M12662 5838 c-19 -19 -14 -45 14 -67 35 -28 67 -13 58 27 -10 44 -47
65 -72 40z"/>
<path d="M18 5803 c-11 -3 -18 -14 -18 -27 0 -31 91 -76 115 -56 20 17 19 25
-7 60 -21 29 -44 35 -90 23z"/>
<path d="M7080 5781 c-25 -47 -3 -175 29 -169 30 6 41 129 15 166 -19 27 -30
28 -44 3z"/>
<path d="M1138 5734 c-42 -22 -53 -95 -15 -102 12 -3 17 3 17 20 0 15 10 29
29 40 16 9 34 26 40 37 11 19 9 21 -16 21 -15 -1 -40 -7 -55 -16z"/>
<path d="M1986 5719 c-25 -36 -20 -67 18 -105 49 -49 76 -46 115 13 31 46 40
86 21 98 -5 3 -38 8 -73 12 -59 5 -65 4 -81 -18z"/>
<path d="M12574 5686 c-10 -41 -1 -61 29 -64 21 -3 29 2 37 23 13 35 -3 65
-35 65 -18 0 -26 -7 -31 -24z"/>
<path d="M1757 5643 c-4 -3 -7 -19 -7 -34 0 -36 39 -64 76 -55 24 6 26 10 19
44 -4 20 -9 40 -11 44 -6 10 -68 10 -77 1z"/>
<path d="M6560 5642 c0 -4 10 -12 23 -17 12 -6 22 -17 22 -26 1 -40 50 -64 74
-35 12 15 5 46 -11 46 -5 0 -21 9 -35 20 -25 19 -73 28 -73 12z"/>
<path d="M12674 5636 c-10 -26 0 -51 21 -51 16 0 20 7 20 30 0 33 -30 49 -41
21z"/>
<path d="M6794 5498 c3 -13 6 -26 6 -30 0 -11 28 -10 35 2 9 14 -13 50 -32 50
-11 0 -14 -6 -9 -22z"/>
<path d="M22 5483 c-13 -9 -22 -26 -22 -41 0 -23 3 -24 37 -19 43 7 78 38 70
61 -8 20 -55 20 -85 -1z"/>
<path d="M7156 5348 c-17 -24 -21 -48 -8 -48 12 0 52 44 52 58 0 20 -28 13
-44 -10z"/>
<path d="M6881 5111 c-18 -12 -10 -55 12 -59 13 -3 17 3 17 27 0 33 -9 44 -29
32z"/>
<path d="M492 5050 c-65 -10 -82 -24 -117 -102 -24 -53 -27 -70 -22 -126 6
-76 24 -104 92 -147 42 -26 58 -30 119 -30 91 1 127 19 166 88 23 41 30 64 30
108 0 61 18 87 73 108 23 9 28 16 25 39 -4 38 -43 44 -52 8 -10 -42 -66 -59
-66 -21 0 20 -56 63 -98 75 -41 11 -72 11 -150 0z"/>
<path d="M6457 5032 c-22 -24 -24 -177 -3 -205 19 -24 82 -14 141 24 49 31 50
42 8 92 -13 16 -23 37 -23 47 0 11 -16 26 -40 39 -50 26 -62 26 -83 3z"/>
<path d="M7560 5020 c-9 -16 -8 -22 5 -26 21 -8 39 10 32 30 -9 22 -24 20 -37
-4z"/>
<path d="M1470 4899 c-30 -12 -59 -47 -60 -71 0 -10 11 -25 25 -34 21 -14 35
-15 78 -8 l52 9 3 41 c2 25 -2 45 -10 52 -21 17 -61 22 -88 11z"/>
<path d="M6745 4833 c15 -35 17 -73 5 -88 -19 -23 4 -43 57 -51 78 -12 194 41
137 63 -8 3 -20 1 -27 -6 -20 -20 -39 -12 -102 44 -66 58 -82 66 -70 38z"/>
<path d="M6030 4763 c-19 -32 -20 -40 -9 -61 39 -71 85 -89 133 -51 25 20 35
62 17 73 -5 3 -12 22 -15 41 -7 34 -8 35 -55 35 -46 0 -50 -2 -71 -37z"/>
<path d="M1078 4779 c-12 -6 -18 -22 -18 -44 0 -52 9 -65 44 -65 40 0 53 9 61
43 14 55 -38 95 -87 66z"/>
<path d="M7045 4680 c-12 -20 17 -40 56 -40 28 0 39 4 39 15 0 27 -81 47 -95
25z"/>
<path d="M6720 4570 c0 -37 2 -41 20 -36 11 3 29 9 40 12 39 11 20 45 -32 58
-27 6 -28 5 -28 -34z"/>
<path d="M6971 4591 c-13 -10 -21 -23 -17 -29 9 -15 93 -26 118 -15 19 8 17
11 -19 36 -46 32 -51 32 -82 8z"/>
<path d="M7382 4591 c-23 -14 -10 -46 18 -46 20 0 25 5 25 25 0 26 -20 36 -43
21z"/>
<path d="M1057 4522 c-37 -5 -90 -59 -105 -109 -32 -108 17 -270 95 -311 30
-17 139 -15 171 2 15 8 49 38 76 66 l49 51 -21 38 c-25 43 -28 71 -10 89 9 9
7 19 -10 42 -12 16 -22 38 -22 50 0 12 -7 20 -17 20 -9 0 -28 11 -42 24 -27
26 -108 44 -164 38z"/>
<path d="M1435 4495 c-68 -24 -78 -53 -46 -128 21 -50 34 -57 97 -57 39 0 46
3 54 26 6 14 10 47 10 74 0 44 -4 52 -33 74 -19 15 -36 26 -38 26 -2 -1 -22
-7 -44 -15z"/>
<path d="M7092 4400 c70 -70 93 -74 93 -16 0 36 -2 39 -50 57 -27 10 -62 19
-77 19 -25 0 -23 -3 34 -60z"/>
<path d="M10304 4445 c-7 -18 3 -35 21 -35 18 0 26 25 12 39 -15 15 -27 14
-33 -4z"/>
<path d="M1950 4414 c-11 -12 -10 -18 3 -31 21 -21 47 -9 47 22 0 29 -29 35
-50 9z"/>
<path d="M8582 4398 c-14 -14 -16 -74 -2 -83 19 -11 60 7 66 30 12 47 -33 84
-64 53z"/>
<path d="M646 4374 c-13 -51 17 -84 63 -69 41 13 36 57 -10 80 -39 20 -46 19
-53 -11z"/>
<path d="M1659 4373 c-13 -35 -4 -55 23 -51 40 5 35 77 -5 78 -4 0 -12 -12
-18 -27z"/>
<path d="M9650 4365 c0 -10 7 -15 18 -13 21 4 19 22 -2 26 -10 2 -16 -3 -16
-13z"/>
<path d="M7350 4293 c-29 -7 -56 -16 -61 -19 -23 -14 -5 -220 38 -444 17 -86
26 -161 24 -207 l-2 -72 39 -26 c31 -20 50 -26 83 -23 40 3 43 5 53 41 6 22
26 54 44 72 29 28 34 42 39 92 3 37 0 85 -10 129 -9 38 -21 140 -27 228 -12
173 -18 199 -50 216 -40 21 -115 27 -170 13z"/>
<path d="M9474 4156 c-9 -24 4 -48 23 -44 12 2 18 12 18 28 0 29 -32 41 -41
16z"/>
<path d="M7160 4110 c0 -14 7 -20 24 -20 23 0 41 22 29 34 -4 3 -17 6 -30 6
-16 0 -23 -6 -23 -20z"/>
<path d="M12467 4093 c-4 -3 -7 -29 -7 -57 0 -28 -9 -75 -21 -105 -33 -87 -2
-92 75 -13 42 44 57 104 37 155 -9 22 -17 27 -44 27 -19 0 -37 -3 -40 -7z"/>
<path d="M1508 4022 c-22 -13 -28 -24 -28 -52 0 -43 15 -60 50 -60 34 0 46 10
54 43 6 27 -7 65 -28 79 -15 10 -17 10 -48 -10z"/>
<path d="M7172 4017 c-16 -19 13 -57 44 -57 19 0 24 5 24 25 0 36 -47 58 -68
32z"/>
<path d="M1988 3964 c-5 -4 -8 -19 -8 -34 0 -14 -5 -31 -12 -38 -9 -9 -9 -20
1 -48 27 -75 -35 -71 -106 6 -25 28 -50 50 -54 50 -14 0 -10 -36 8 -81 16 -41
16 -42 -6 -61 -35 -28 -69 -23 -89 12 -9 16 -20 30 -23 30 -3 0 -24 18 -47 40
-44 43 -65 49 -100 24 -18 -12 -22 -25 -22 -64 0 -28 5 -52 13 -57 6 -4 39 -8
72 -8 54 0 60 -2 57 -20 -2 -11 -12 -27 -23 -37 -10 -9 -19 -27 -19 -40 0 -30
54 -83 94 -92 16 -4 41 -20 55 -35 34 -36 96 -50 103 -23 6 21 91 82 114 82
25 0 71 -53 83 -95 5 -21 21 -50 35 -64 14 -14 36 -47 50 -73 l25 -48 -24 -22
c-14 -14 -25 -37 -27 -58 -3 -38 -3 -38 -67 -15 -51 18 -74 8 -54 -24 7 -11
10 -35 6 -55 -5 -31 -3 -36 13 -36 11 1 30 7 44 15 34 20 48 18 55 -5 7 -21
-27 -88 -52 -103 -20 -12 -16 -27 7 -27 27 0 142 -39 157 -54 6 -6 13 -29 15
-50 3 -36 0 -40 -25 -47 -22 -6 -40 -2 -74 17 -56 29 -65 30 -88 4 -17 -18
-16 -20 3 -47 13 -18 29 -27 48 -28 24 0 30 -5 32 -26 2 -21 14 -31 55 -50 82
-37 155 -106 157 -146 0 -7 -13 -19 -30 -28 -23 -12 -30 -22 -30 -45 0 -30 22
-42 35 -20 7 11 45 13 69 4 27 -10 18 -33 -21 -51 -56 -28 -61 -43 -33 -103
13 -29 35 -66 47 -83 13 -17 23 -37 23 -44 0 -22 -53 -83 -73 -83 -20 0 -34
-27 -21 -40 6 -6 24 -13 42 -16 25 -5 33 -3 38 12 4 11 22 35 40 54 18 19 44
48 57 63 17 22 34 30 69 34 25 3 48 1 51 -4 3 -5 9 -37 13 -71 l7 -62 -32 0
c-18 0 -40 9 -51 20 -21 21 -60 27 -60 10 0 -6 7 -24 15 -40 17 -33 49 -45 98
-36 25 4 39 0 65 -22 27 -22 34 -38 42 -87 12 -70 -3 -207 -26 -243 -11 -16
-12 -27 -4 -41 5 -11 10 -27 10 -35 0 -23 -58 -20 -98 4 -34 21 -85 25 -156
12 -96 -17 -22 -62 119 -72 56 -4 117 -14 139 -23 21 -10 65 -17 96 -17 71 0
90 -7 90 -31 0 -19 -8 -22 -95 -35 -62 -9 -94 -9 -169 1 -49 7 -58 6 -54 -6 3
-8 13 -43 24 -78 21 -70 45 -92 83 -72 27 15 54 8 175 -42 84 -36 102 -47 127
-83 16 -24 29 -47 29 -53 0 -5 4 -13 10 -16 11 -6 226 31 286 50 16 5 28 0 43
-16 18 -20 34 -24 94 -27 81 -4 89 0 104 58 8 30 14 36 47 41 20 3 42 11 49
18 26 26 97 0 97 -35 0 -29 -28 -65 -55 -72 -29 -8 -30 -11 -31 -68 -1 -32 -2
-64 -3 -70 0 -6 -19 -20 -41 -33 -23 -13 -40 -30 -40 -40 0 -30 42 -61 83 -61
50 0 68 29 71 116 2 43 8 69 17 75 20 12 86 11 111 -2 26 -14 48 -68 48 -118
0 -30 5 -43 19 -51 27 -14 86 -13 99 3 6 6 12 44 15 82 2 39 15 102 27 140 38
116 37 145 -4 229 -43 86 -44 105 -11 145 23 26 24 33 13 51 -12 19 -10 24 16
46 36 32 50 27 57 -22 13 -86 56 -144 106 -144 12 0 45 5 73 11 43 9 53 16 70
47 11 21 24 44 29 52 5 8 15 30 22 48 16 44 42 57 72 37 13 -8 27 -12 30 -9 4
4 13 1 21 -5 30 -25 32 64 3 111 -9 13 -7 26 6 53 25 53 22 65 -17 65 -63 0
-66 -4 -66 -91 0 -71 -2 -79 -19 -79 -29 0 -48 25 -56 72 -4 24 -13 54 -20 68
-17 33 -29 113 -21 143 3 13 17 29 31 35 23 11 27 9 50 -28 14 -22 31 -40 38
-40 15 0 48 76 41 94 -3 7 -19 19 -37 27 -25 11 -33 23 -42 59 -15 58 -41 107
-63 119 -9 5 -36 12 -59 16 -41 6 -56 26 -33 40 6 3 10 25 10 48 0 71 8 87 43
87 18 0 40 9 53 21 13 12 33 27 45 33 49 25 51 76 4 76 -20 0 -29 -8 -41 -35
-9 -23 -23 -37 -41 -41 -36 -9 -53 16 -53 80 0 28 -3 61 -6 74 -8 29 -36 30
-32 0 2 -16 -5 -26 -24 -35 -60 -30 -88 -143 -54 -224 9 -22 12 -49 7 -74 -6
-37 -11 -42 -71 -73 -36 -19 -68 -39 -73 -45 -8 -12 -4 -69 14 -217 19 -158
21 -197 10 -219 -14 -26 -29 -26 -61 -1 -34 27 -47 25 -87 -10 -18 -16 -42
-30 -53 -30 -10 0 -31 -14 -47 -31 -15 -17 -45 -42 -66 -55 -23 -15 -45 -40
-54 -62 -31 -77 -90 -113 -180 -111 -93 2 -111 9 -136 54 -28 49 -45 53 -80
21 -37 -35 -69 -20 -96 45 -28 65 -54 178 -46 203 27 90 24 116 -16 116 -22 0
-35 18 -21 32 6 6 3 30 -9 70 -23 73 -24 102 -3 119 8 7 22 26 31 43 24 49 54
75 94 86 23 6 40 18 44 30 8 25 -15 68 -45 83 -17 9 -27 25 -33 55 -6 32 -15
46 -38 58 -19 9 -29 21 -25 29 3 8 10 32 16 54 6 25 21 48 36 57 51 34 55 86
8 98 -35 9 -54 -9 -54 -52 0 -24 -7 -42 -25 -58 -19 -18 -25 -33 -25 -65 0
-30 -9 -56 -29 -88 -17 -25 -35 -68 -41 -94 -25 -115 -99 -195 -99 -109 0 15
-5 54 -10 87 -6 33 -15 98 -20 145 -4 47 -12 92 -15 101 -5 12 6 30 38 62 52
51 58 83 26 132 -11 17 -20 39 -20 49 0 17 -5 14 -34 -15 -66 -67 -116 -95
-116 -66 0 7 -13 26 -30 42 -24 23 -30 37 -30 70 0 43 12 61 58 85 19 9 27 9
41 -4 10 -9 22 -16 28 -16 20 0 35 29 29 56 -6 24 -10 26 -44 21 -41 -7 -55
-1 -65 26 -4 9 -37 32 -74 50 -37 17 -76 44 -87 60 l-20 27 21 28 c11 15 33
29 48 32 21 4 37 18 56 50 35 57 35 70 4 70 -17 0 -39 14 -64 39 -48 49 -94
65 -150 52 -23 -5 -50 -7 -61 -4 -16 4 -24 -4 -39 -39 -23 -54 -44 -74 -59
-56 -6 7 -18 41 -26 76 -25 95 -36 113 -60 106 -12 -3 -25 -10 -31 -15 -19
-18 -42 -8 -78 35 -20 25 -37 50 -37 56 0 6 -11 21 -24 33 -13 12 -31 43 -41
70 -11 32 -26 52 -45 62 -31 16 -45 44 -35 74 4 13 21 23 53 30 49 10 57 7 76
-31 18 -36 50 -34 101 8 36 29 45 43 43 63 -2 17 -10 27 -23 29 -11 2 -30 13
-41 24 -17 15 -21 27 -17 57 5 34 3 39 -18 44 -46 11 -164 19 -171 11z m879
-1809 c14 -56 11 -77 -10 -69 -17 6 -47 93 -39 112 11 29 37 6 49 -43z m198
-171 c30 -20 32 -49 5 -64 -22 -12 -50 -60 -50 -85 0 -8 10 -19 23 -24 33 -13
46 -32 62 -95 8 -31 26 -79 40 -106 14 -27 25 -54 25 -60 0 -16 -98 -12 -136
6 -18 9 -44 33 -56 53 -12 20 -29 41 -38 48 -12 10 -13 15 -2 30 7 10 19 33
28 52 14 31 14 38 0 75 -8 23 -17 61 -18 86 -3 42 -1 45 35 62 20 10 37 23 37
28 0 15 17 12 45 -6z"/>
<path d="M6810 3906 c-42 -23 -71 -73 -77 -130 -5 -52 -5 -53 35 -84 31 -25
49 -32 85 -32 42 0 47 3 91 56 40 49 46 62 46 104 0 55 -15 73 -75 89 -52 14
-74 13 -105 -3z"/>
<path d="M7140 3875 c0 -24 3 -25 55 -25 30 0 55 4 55 9 0 10 -72 41 -95 41
-9 0 -15 -10 -15 -25z"/>
<path d="M1326 3814 c-20 -20 -20 -33 1 -41 16 -6 53 28 53 48 0 15 -37 10
-54 -7z"/>
<path d="M10783 3734 c-4 -11 2 -23 18 -35 27 -21 38 -20 53 5 9 13 7 20 -8
32 -26 19 -55 18 -63 -2z"/>
<path d="M2177 3663 c-16 -15 -5 -33 19 -33 20 0 25 4 20 16 -3 9 -6 18 -6 20
0 7 -26 5 -33 -3z"/>
<path d="M8142 3653 c2 -12 12 -18 28 -18 36 0 33 29 -3 33 -23 3 -28 0 -25
-15z"/>
<path d="M1126 3635 c-8 -21 39 -44 56 -27 6 6 8 18 5 26 -8 20 -53 21 -61 1z"/>
<path d="M1420 3620 c-14 -26 -1 -44 26 -38 13 2 19 12 19 28 0 32 -30 38 -45
10z"/>
<path d="M1622 3498 c-12 -12 -92 -14 -204 -7 -71 5 -78 -52 -8 -59 26 -3 38
2 52 20 l17 23 25 -26 c13 -14 45 -31 69 -38 25 -6 49 -15 52 -21 3 -5 26 -10
51 -10 36 0 44 3 44 18 0 11 -13 24 -32 33 -20 9 -32 20 -29 29 2 8 6 23 8 33
6 20 -26 24 -45 5z"/>
<path d="M11671 3486 c-17 -20 3 -56 30 -56 17 0 20 5 17 32 -3 36 -27 48 -47
24z"/>
<path d="M1121 3448 c1 -39 14 -60 45 -72 36 -16 54 -10 54 15 0 12 -12 24
-35 33 -19 8 -38 22 -41 31 -9 23 -24 18 -23 -7z"/>
<path d="M7505 3460 c-14 -23 6 -56 51 -82 54 -33 60 -34 73 -9 12 22 -18 67
-53 80 -50 19 -65 21 -71 11z"/>
<path d="M556 3418 c-9 -37 -8 -39 26 -36 23 2 34 9 36 22 7 37 -52 50 -62 14z"/>
<path d="M1866 3369 c-4 -9 -6 -40 -4 -70 l3 -53 55 2 c109 6 121 30 24 47
-59 10 -59 11 -65 50 -4 28 -8 35 -13 24z"/>
<path d="M1717 3295 c-32 -29 -58 -31 -117 -10 -79 28 -109 10 -74 -43 11 -15
21 -43 24 -62 4 -27 12 -38 37 -50 18 -8 33 -18 33 -22 0 -4 -16 -15 -35 -24
-75 -35 -135 -142 -135 -238 0 -22 13 -70 28 -105 25 -60 31 -66 92 -97 74
-39 80 -40 143 -18 51 17 121 88 132 134 3 14 20 60 37 102 25 63 37 79 60 87
34 12 36 38 7 75 -14 18 -18 33 -13 48 6 20 5 21 -10 9 -9 -7 -16 -21 -16 -30
-1 -9 -11 -29 -24 -44 -21 -26 -25 -28 -45 -16 -23 15 -27 40 -9 68 9 15 7 25
-11 55 -20 32 -22 44 -16 112 6 60 5 78 -6 85 -24 15 -53 9 -82 -16z"/>
<path d="M12022 3298 c-15 -15 -16 -50 -1 -65 17 -17 49 -3 55 23 10 41 -27
69 -54 42z"/>
<path d="M1053 3292 c-21 -13 -3 -60 28 -72 65 -27 84 27 21 59 -21 11 -43 16
-49 13z"/>
<path d="M7558 3243 c-6 -23 1 -45 13 -37 12 7 12 54 0 54 -5 0 -11 -8 -13
-17z"/>
<path d="M1225 3178 c-10 -35 -11 -78 0 -78 6 0 21 -11 33 -25 14 -16 32 -25
52 -25 28 0 30 2 30 40 0 35 -4 41 -32 53 -18 8 -39 21 -47 30 -16 20 -30 22
-36 5z"/>
<path d="M0 3152 c0 -28 4 -32 40 -42 22 -6 73 -10 113 -8 58 2 72 6 75 20 6
30 -39 48 -136 54 l-92 7 0 -31z"/>
<path d="M590 3107 c0 -35 15 -57 37 -57 21 0 63 47 63 70 0 17 -6 20 -50 20
-50 0 -50 0 -50 -33z"/>
<path d="M387 3093 c-12 -12 -7 -50 8 -63 12 -10 20 -9 40 4 26 17 29 24 19
50 -6 16 -54 22 -67 9z"/>
<path d="M8236 2945 c6 -14 35 -35 48 -35 14 0 4 30 -13 40 -28 14 -41 12 -35
-5z"/>
<path d="M3240 2866 c0 -23 52 -46 103 -46 24 0 59 -5 77 -11 30 -11 34 -10
51 12 10 13 19 29 19 36 0 21 -69 27 -105 10 -32 -15 -49 -14 -122 8 -17 6
-23 3 -23 -9z"/>
<path d="M733 2848 c-24 -11 -29 -40 -17 -86 9 -32 77 -66 104 -52 16 9 20 21
20 68 0 32 -5 63 -12 70 -15 15 -65 15 -95 0z"/>
<path d="M5522 2844 c-42 -29 -22 -74 34 -74 58 0 71 54 18 78 -31 15 -25 15
-52 -4z"/>
<path d="M5170 2843 c-17 -5 -60 -68 -60 -87 0 -7 5 -27 11 -45 15 -42 43 -40
85 5 27 28 34 44 34 75 0 33 -4 41 -26 49 -14 6 -26 9 -27 9 -1 -1 -9 -3 -17
-6z"/>
<path d="M4011 2781 c-33 -22 -52 -28 -73 -24 -35 7 -35 -5 -2 -36 27 -26 140
-49 156 -33 5 5 8 33 6 63 -4 67 -22 73 -87 30z"/>
<path d="M5887 2763 c-9 -11 -19 -33 -23 -50 -6 -29 -5 -30 39 -36 25 -4 63
-14 85 -22 l40 -16 -5 -80 c-6 -75 -5 -80 20 -105 53 -53 108 -14 74 52 -11
22 -12 34 -4 52 10 21 8 27 -15 47 -22 19 -26 30 -24 76 l1 54 -50 17 c-89 29
-119 32 -138 11z"/>
<path d="M10018 2763 c-9 -10 -21 -36 -27 -58 -9 -32 -8 -42 4 -54 13 -13 20
-11 55 24 44 43 52 78 21 95 -27 14 -35 13 -53 -7z"/>
<path d="M5733 2733 c-18 -7 -16 -53 3 -74 13 -14 21 -16 35 -8 26 13 25 65 0
79 -11 5 -21 10 -23 9 -2 0 -9 -3 -15 -6z"/>
<path d="M3404 2688 c-5 -7 -20 -34 -33 -60 -23 -42 -24 -50 -12 -88 8 -27 21
-45 37 -52 30 -14 37 -8 57 57 25 83 31 136 16 146 -20 13 -55 11 -65 -3z"/>
<path d="M1152 2678 c-92 -13 -166 -43 -202 -84 -28 -33 -30 -39 -24 -87 8
-67 46 -153 87 -195 43 -45 91 -68 157 -76 54 -7 56 -6 91 31 20 21 45 53 54
72 23 46 31 144 15 179 -37 79 -48 95 -80 131 l-35 38 -63 -9z"/>
<path d="M3567 2613 c3 -27 10 -54 16 -60 15 -19 81 -16 108 6 13 10 33 20 44
22 12 3 21 14 23 28 4 22 2 23 -45 16 -40 -5 -53 -3 -75 14 -14 12 -38 21 -52
21 -25 0 -25 -2 -19 -47z"/>
<path d="M6874 2635 c-3 -8 -3 -19 0 -24 10 -16 36 -1 36 20 0 22 -28 26 -36
4z"/>
<path d="M1387 2564 c-16 -16 -7 -44 14 -44 15 0 20 5 17 22 -3 22 -19 33 -31
22z"/>
<path d="M5232 2558 c-17 -21 -7 -58 27 -99 30 -36 42 -34 65 13 21 42 20 51
-5 45 -29 -8 -67 12 -71 36 -3 18 -4 19 -16 5z"/>
<path d="M1802 2535 c-22 -48 -16 -65 24 -65 47 0 74 16 74 43 0 32 -18 47
-55 47 -24 0 -35 -6 -43 -25z"/>
<path d="M3844 2546 c-3 -8 -1 -24 6 -35 13 -25 71 -29 90 -7 9 12 4 18 -29
35 -48 25 -60 26 -67 7z"/>
<path d="M1445 2498 c10 -34 51 -72 69 -65 43 17 1 87 -52 87 -20 0 -22 -4
-17 -22z"/>
<path d="M2097 2457 c-20 -18 -37 -38 -37 -46 0 -7 -10 -21 -22 -32 l-23 -19
40 2 c38 3 40 1 65 -47 31 -62 60 -72 60 -23 0 19 -7 59 -17 89 -9 30 -15 66
-14 82 3 35 -7 34 -52 -6z"/>
<path d="M3495 2456 c-28 -23 -29 -26 -14 -41 14 -15 24 -15 78 -4 67 13 69
24 8 54 -38 19 -37 19 -72 -9z"/>
<path d="M538 2459 c-10 -5 -18 -21 -18 -34 0 -19 5 -25 23 -25 40 0 66 12 73
32 10 34 -39 50 -78 27z"/>
<path d="M3767 2453 c-25 -6 -17 -35 13 -49 14 -6 58 -14 98 -17 67 -5 72 -4
72 14 0 11 -8 22 -17 25 -10 3 -31 12 -46 20 -28 13 -82 17 -120 7z"/>
<path d="M4076 2421 c-15 -16 -15 -19 -1 -31 13 -11 19 -11 32 3 15 15 12 47
-5 47 -5 0 -16 -8 -26 -19z"/>
<path d="M1948 2405 c-13 -28 -30 -32 -48 -10 -16 20 -70 20 -70 1 0 -28 20
-66 34 -66 7 0 17 -10 20 -22 l6 -23 21 24 c11 14 30 30 42 35 21 11 37 51 29
74 -7 19 -21 14 -34 -13z"/>
<path d="M5602 2344 c-35 -24 -29 -59 16 -79 20 -10 60 -39 88 -65 27 -26 64
-51 81 -54 18 -4 37 -14 44 -22 13 -16 109 -20 109 -4 0 5 -18 21 -41 36 -22
14 -80 66 -128 115 -94 95 -121 107 -169 73z"/>
<path d="M7199 2342 c-15 -13 -20 -25 -16 -36 10 -26 100 -19 105 8 5 21 -22
46 -49 46 -9 0 -27 -8 -40 -18z"/>
<path d="M6062 2318 c4 -29 38 -38 38 -10 0 11 -7 23 -16 26 -24 9 -26 8 -22
-16z"/>
<path d="M3822 2319 c7 -20 78 -59 109 -59 15 0 32 7 39 16 21 25 -7 41 -84
49 -56 6 -68 5 -64 -6z"/>
<path d="M3565 2283 c-16 -3 -40 -13 -54 -24 -13 -11 -44 -24 -68 -30 -24 -6
-43 -17 -43 -24 0 -7 7 -45 16 -84 20 -88 38 -103 115 -98 48 2 55 6 68 32 8
16 17 57 20 91 5 41 14 70 26 84 20 22 20 22 -4 41 -13 10 -28 18 -35 18 -6
-1 -24 -4 -41 -6z"/>
<path d="M9180 2261 c0 -12 6 -21 15 -21 8 0 15 4 15 9 0 5 -7 14 -15 21 -13
10 -15 9 -15 -9z"/>
<path d="M1438 2253 c-20 -5 -24 -28 -7 -38 19 -12 61 4 57 23 -3 18 -21 23
-50 15z"/>
<path d="M6409 2220 c-45 -23 -52 -34 -72 -95 -14 -45 -14 -57 -1 -115 22 -98
32 -117 82 -150 52 -34 99 -38 173 -16 54 17 125 84 134 128 16 70 -20 182
-74 232 -29 28 -37 30 -119 32 -69 3 -94 -1 -123 -16z"/>
<path d="M3733 2208 c-16 -20 24 -118 48 -118 25 0 36 59 17 97 -14 31 -49 42
-65 21z"/>
<path d="M8986 2195 c-11 -9 -29 -12 -43 -9 -17 5 -31 0 -48 -16 -12 -12 -31
-21 -41 -20 -37 4 -44 0 -44 -28 0 -28 26 -62 47 -62 6 0 18 11 27 25 9 14 25
25 36 25 11 0 30 11 42 25 18 20 28 24 51 19 27 -6 28 -4 25 22 -3 33 -24 40
-52 19z"/>
<path d="M6087 2187 c-10 -26 6 -68 34 -88 20 -14 29 -29 29 -48 0 -33 23 -56
46 -47 20 8 12 66 -11 79 -10 5 -13 16 -9 32 8 34 -3 60 -32 73 -33 16 -51 15
-57 -1z"/>
<path d="M1313 2169 c-45 -13 -50 -28 -17 -55 43 -34 124 -28 124 10 0 11 -64
59 -73 55 -1 0 -16 -5 -34 -10z"/>
<path d="M1544 2165 c-14 -35 52 -205 79 -205 23 0 36 16 52 59 21 61 20 66
-26 116 -44 47 -93 61 -105 30z"/>
<path d="M3880 2155 c-10 -12 -9 -20 4 -40 13 -20 25 -25 56 -25 47 0 50 13
15 53 -27 30 -56 35 -75 12z"/>
<path d="M900 2117 c-15 -8 -26 -23 -28 -39 -3 -26 -3 -26 82 -33 117 -10 136
6 69 58 -39 29 -82 35 -123 14z"/>
<path d="M8522 2003 c3 -24 7 -28 32 -26 16 1 34 7 39 12 16 16 -12 41 -45 41
-26 0 -29 -3 -26 -27z"/>
<path d="M1208 2013 c-30 -5 -53 -27 -44 -42 4 -5 21 -13 39 -16 51 -12 87
-34 98 -62 12 -32 24 -21 33 27 11 63 -47 105 -126 93z"/>
<path d="M4600 1997 c0 -17 31 -47 49 -47 8 0 11 11 9 28 -2 21 -9 28 -30 30
-19 2 -28 -1 -28 -11z"/>
<path d="M3962 1968 c3 -24 34 -36 49 -21 16 16 -2 43 -28 43 -20 0 -24 -4
-21 -22z"/>
<path d="M5809 1964 c-8 -9 -30 -24 -49 -32 -33 -13 -35 -13 -55 12 -24 30
-55 35 -55 8 0 -24 19 -42 46 -42 12 0 26 -6 32 -13 13 -15 52 -153 52 -183 0
-32 29 -51 92 -59 55 -6 58 -5 67 18 11 30 46 44 66 27 8 -6 28 -33 45 -60 31
-48 73 -75 107 -68 13 2 19 14 21 42 3 33 -2 43 -40 80 -58 58 -82 70 -98 51
-18 -22 -30 -18 -41 14 -5 15 -22 34 -37 41 -82 37 -77 30 -82 105 -5 66 -6
70 -31 73 -15 2 -32 -4 -40 -14z"/>
<path d="M3313 1924 c-3 -8 0 -27 8 -42 7 -15 18 -43 24 -62 16 -51 45 -48 61
7 12 41 12 43 -21 77 -36 38 -62 46 -72 20z"/>
<path d="M8372 1931 c-22 -13 -10 -44 20 -52 35 -9 43 4 22 36 -18 27 -22 29
-42 16z"/>
<path d="M1605 1900 c-18 -28 20 -81 46 -64 16 9 10 30 -15 53 -16 15 -26 19
-31 11z"/>
<path d="M783 1873 c-9 -16 -25 -38 -36 -50 -35 -40 -17 -55 60 -47 97 10 145
42 127 87 -7 19 -55 37 -100 37 -26 0 -38 -6 -51 -27z"/>
<path d="M3951 1879 c-52 -10 -55 -12 -47 -36 4 -14 17 -19 48 -20 64 -3 88 4
88 27 0 16 -29 43 -42 39 -2 -1 -23 -5 -47 -10z"/>
<path d="M3798 1859 c-22 -12 -23 -47 -2 -77 18 -27 45 -28 67 -4 22 24 21 34
-4 66 -22 28 -34 31 -61 15z"/>
<path d="M2552 1798 c-17 -17 -15 -36 6 -46 23 -12 42 -4 42 17 0 16 -18 41
-30 41 -3 0 -11 -5 -18 -12z"/>
<path d="M7929 1781 c-20 -16 -21 -21 -10 -35 29 -35 72 -6 55 38 -8 21 -17
20 -45 -3z"/>
<path d="M6203 1780 c-29 -12 -29 -13 7 -84 17 -32 30 -64 30 -71 0 -31 100
-34 148 -5 28 17 32 25 32 63 0 24 -6 51 -12 60 -28 37 -150 59 -205 37z"/>
<path d="M3935 1740 c-12 -20 14 -35 61 -34 49 1 63 9 47 25 -17 17 -99 24
-108 9z"/>
<path d="M1630 1697 c0 -40 29 -74 48 -55 16 16 15 39 -4 66 -23 33 -44 28
-44 -11z"/>
<path d="M1241 1691 c-30 -30 -28 -61 4 -61 33 0 69 17 84 42 15 24 13 27 -32
35 -27 4 -39 1 -56 -16z"/>
<path d="M7448 1678 c-38 -13 -36 -40 10 -99 38 -50 51 -55 111 -43 28 6 31
10 31 43 0 43 -12 62 -60 90 -38 23 -52 24 -92 9z"/>
<path d="M4728 1660 c-36 -19 -38 -23 -38 -68 0 -42 4 -51 30 -70 54 -40 107
-21 129 47 23 71 10 98 -51 107 -21 3 -46 -3 -70 -16z"/>
<path d="M3330 1633 c0 -51 24 -138 37 -138 6 0 25 12 41 27 38 34 54 110 29
136 -14 13 -20 14 -40 3 -19 -10 -30 -10 -46 -2 -20 11 -21 9 -21 -26z"/>
<path d="M5727 1563 c-16 -15 -5 -44 20 -54 37 -14 51 3 29 35 -16 25 -36 33
-49 19z"/>
<path d="M6186 1499 c-33 -26 -36 -84 -5 -123 17 -22 28 -26 70 -26 60 0 84
20 94 79 11 66 -11 91 -79 91 -39 0 -60 -6 -80 -21z"/>
<path d="M7207 1513 c-4 -3 -7 -19 -7 -35 0 -24 4 -28 29 -28 35 0 45 12 37
46 -5 17 -13 24 -30 24 -12 0 -26 -3 -29 -7z"/>
<path d="M3461 1476 c-9 -10 -9 -16 -1 -21 17 -10 37 12 24 25 -8 8 -15 6 -23
-4z"/>
<path d="M4799 1429 c-13 -25 0 -43 27 -37 23 4 31 37 12 49 -20 13 -26 11
-39 -12z"/>
<path d="M5193 1410 c-15 -23 -17 -50 -3 -50 28 0 61 25 58 44 -4 28 -40 32
-55 6z"/>
<path d="M4300 1295 c0 -24 85 -98 104 -92 11 4 56 84 56 101 0 7 -29 11 -80
12 -76 1 -80 0 -80 -21z"/>
<path d="M2468 1280 l-28 -29 24 -28 c13 -15 25 -35 27 -45 3 -14 9 -12 37 12
l33 27 -22 47 c-13 25 -28 46 -33 46 -6 -1 -23 -14 -38 -30z"/>
<path d="M6150 1261 c-16 -30 -12 -69 8 -80 23 -12 74 -17 90 -8 17 11 15 73
-4 91 -22 23 -81 21 -94 -3z"/>
<path d="M5070 1226 c0 -22 29 -41 42 -28 8 8 8 15 -2 27 -16 19 -40 20 -40 1z"/>
<path d="M4207 1213 c-10 -9 -8 -43 2 -43 23 0 67 26 64 38 -5 13 -55 17 -66
5z"/>
<path d="M6834 1146 c-9 -24 3 -46 26 -46 17 0 21 5 18 27 -3 31 -34 44 -44
19z"/>
<path d="M5690 1124 c0 -31 23 -28 28 4 2 15 -2 22 -12 22 -11 0 -16 -9 -16
-26z"/>
<path d="M1142 1078 c-15 -18 -17 -39 -9 -70 9 -33 46 -46 83 -29 19 8 24 18
24 49 0 21 -5 43 -12 50 -16 16 -73 15 -86 0z"/>
<path d="M2773 1000 c-36 -22 -41 -44 -17 -78 12 -17 25 -22 58 -22 72 0 98
49 51 95 -29 30 -50 31 -92 5z"/>
<path d="M5716 984 c-9 -22 1 -34 29 -34 13 0 26 4 29 9 11 17 -6 41 -29 41
-13 0 -26 -7 -29 -16z"/>
<path d="M4141 972 c-12 -22 -6 -32 21 -32 14 0 19 6 16 22 -4 29 -24 34 -37
10z"/>
<path d="M4850 926 c0 -9 7 -16 16 -16 17 0 14 22 -4 28 -7 2 -12 -3 -12 -12z"/>
<path d="M1990 784 c0 -17 22 -14 28 4 2 7 -3 12 -12 12 -9 0 -16 -7 -16 -16z"/>
<path d="M3734 635 c-43 -34 -49 -61 -19 -91 35 -35 108 -34 131 1 22 34 11
71 -29 95 -41 25 -45 25 -83 -5z"/>
<path d="M2113 634 c-8 -21 13 -42 28 -27 13 13 5 43 -11 43 -6 0 -13 -7 -17
-16z"/>
<path d="M8580 600 c0 -14 7 -20 21 -20 15 0 19 4 15 16 -3 9 -6 18 -6 20 0 2
-7 4 -15 4 -8 0 -15 -9 -15 -20z"/>
<path d="M2072 548 c-18 -18 -15 -36 9 -48 26 -14 51 4 47 34 -3 24 -37 33
-56 14z"/>
<path d="M2590 340 c0 -70 3 -90 14 -90 14 0 36 69 36 115 0 34 -17 65 -35 65
-12 0 -15 -18 -15 -90z"/>
<path d="M1763 404 c-8 -22 10 -49 33 -49 14 0 20 8 22 33 3 29 1 32 -23 32
-14 0 -28 -7 -32 -16z"/>
<path d="M2596 81 c-13 -14 -16 -28 -11 -51 6 -28 10 -31 38 -28 30 3 32 5 35
51 3 44 1 47 -21 47 -13 0 -32 -9 -41 -19z"/>
<path d="M2297 74 c-13 -13 -7 -42 8 -48 22 -8 31 22 13 40 -8 8 -17 11 -21 8z"/>
</g>
</svg>
